<svg xmlns="http://www.w3.org/2000/svg" viewBox="0 0 390 844" width="390" height="844">
  <defs>
    <linearGradient id="brandGrad" x1="0" y1="0" x2="1" y2="1"><stop offset="0%" stop-color="#6366f1"/><stop offset="100%" stop-color="#a855f7"/></linearGradient>
    <filter id="orb"><feGaussianBlur stdDeviation="40"/></filter>
  </defs>
  <rect width="390" height="844" fill="#050508"/>
  <ellipse cx="340" cy="120" rx="140" ry="140" fill="rgba(99,102,241,0.09)" filter="url(#orb)"/>

  <!-- STATUS BAR -->
  <rect x="0" y="0" width="390" height="50" fill="rgba(5,5,8,0.9)"/>
  <text x="24" y="33" font-family="system-ui,sans-serif" font-size="15" font-weight="600" fill="#f0f0f8">9:41</text>
  <rect x="328" y="21" width="28" height="13" rx="3.5" fill="none" stroke="rgba(240,240,248,0.7)" stroke-width="1.5"/>
  <rect x="356" y="25" width="3" height="5" rx="1" fill="rgba(240,240,248,0.7)"/>
  <rect x="330" y="23" width="22" height="9" rx="2" fill="#34d399"/>

  <!-- HEADER -->
  <rect x="0" y="50" width="390" height="58" fill="rgba(8,8,14,0.88)"/>
  <rect x="0" y="107" width="390" height="1" fill="rgba(255,255,255,0.08)"/>
  <rect x="20" y="62" width="34" height="34" rx="10" fill="url(#brandGrad)"/>
  <text x="37" y="84" font-size="17" text-anchor="middle">🎯</text>
  <text x="62" y="82" font-family="system-ui,sans-serif" font-size="17" font-weight="800" fill="#f0f0f8">Market</text>
  <text x="120" y="82" font-family="system-ui,sans-serif" font-size="17" font-weight="800" fill="#818cf8">Pro</text>
  <rect x="194" y="65" width="110" height="28" rx="14" fill="rgba(255,255,255,0.05)" stroke="rgba(255,255,255,0.09)" stroke-width="1"/>
  <circle cx="209" cy="79" r="9" fill="#6366f1"/>
  <text x="209" y="83" font-size="9" font-weight="800" fill="white" text-anchor="middle">B</text>
  <text x="222" y="82" font-family="system-ui,sans-serif" font-size="11" font-weight="600" fill="#f0f0f8">Budi</text>
  <rect x="244" y="70" width="52" height="16" rx="8" fill="rgba(245,158,11,0.15)"/>
  <text x="270" y="81" font-size="8.5" font-weight="700" fill="#f59e0b" text-anchor="middle">MARKETING</text>
  <rect x="313" y="65" width="30" height="28" rx="8" fill="rgba(255,255,255,0.05)" stroke="rgba(255,255,255,0.08)" stroke-width="1"/>
  <text x="328" y="84" font-size="15" text-anchor="middle">🌙</text>
  <rect x="350" y="65" width="30" height="28" rx="8" fill="rgba(255,255,255,0.05)" stroke="rgba(255,255,255,0.08)" stroke-width="1"/>
  <text x="365" y="84" font-size="15" text-anchor="middle">🔔</text>

  <!-- SEARCH -->
  <rect x="0" y="108" width="390" height="54" fill="rgba(5,5,8,0.87)"/>
  <rect x="18" y="118" width="354" height="36" rx="12" fill="#18181f" stroke="rgba(255,255,255,0.08)" stroke-width="1.5"/>
  <text x="36" y="141" font-size="15">🔍</text>
  <text x="56" y="142" font-family="system-ui,sans-serif" font-size="13" fill="#2e2e42">Cari nama, HP, unit, kavling...</text>

  <!-- FILTER CHIPS -->
  <rect x="18" y="172" width="58" height="26" rx="13" fill="#6366f1" stroke="#6366f1" stroke-width="1"/>
  <text x="47" y="189" font-family="system-ui,sans-serif" font-size="11" font-weight="700" fill="white" text-anchor="middle">Semua</text>

  <rect x="84" y="172" width="84" height="26" rx="13" fill="transparent" stroke="rgba(255,255,255,0.08)" stroke-width="1"/>
  <text x="126" y="189" font-family="system-ui,sans-serif" font-size="11" font-weight="600" fill="#4a4a68" text-anchor="middle">📋 Booking</text>

  <rect x="176" y="172" width="90" height="26" rx="13" fill="transparent" stroke="rgba(255,255,255,0.08)" stroke-width="1"/>
  <text x="221" y="189" font-family="system-ui,sans-serif" font-size="11" font-weight="600" fill="#4a4a68" text-anchor="middle">💰 Proses DP</text>

  <rect x="274" y="172" width="78" height="26" rx="13" fill="transparent" stroke="rgba(255,255,255,0.08)" stroke-width="1"/>
  <text x="313" y="189" font-family="system-ui,sans-serif" font-size="11" font-weight="600" fill="#4a4a68" text-anchor="middle">📁 Berkas</text>

  <!-- KONSUMEN CARDS -->
  <!-- Card 1 - Booking -->
  <rect x="18" y="214" width="354" height="86" rx="16" fill="#0c0c14" stroke="rgba(255,255,255,0.08)" stroke-width="1"/>
  <rect x="18" y="228" width="3" height="56" rx="1.5" fill="#6366f1"/>
  <!-- top row -->
  <text x="32" y="238" font-family="system-ui,sans-serif" font-size="14" font-weight="700" fill="#f0f0f8">Budi Santoso</text>
  <rect x="282" y="228" width="56" height="18" rx="9" fill="rgba(99,102,241,0.15)"/>
  <text x="310" y="241" font-size="10" font-weight="700" fill="#818cf8" text-anchor="middle">Booking</text>
  <text x="32" y="254" font-family="system-ui,sans-serif" font-size="11" fill="#4a4a68">T36/72 · Kav. A-05</text>
  <!-- footer -->
  <rect x="28" y="264" width="330" height="28" rx="8" fill="rgba(255,255,255,0.04)"/>
  <text x="40" y="282" font-family="system-ui,sans-serif" font-size="11" fill="#4a4a68">📞 081234567890</text>
  <text x="178" y="282" font-family="system-ui,sans-serif" font-size="11" fill="#4a4a68">💰 350jt</text>
  <text x="268" y="282" font-family="system-ui,sans-serif" font-size="11" fill="#4a4a68">📁 1/6</text>

  <!-- Card 2 - Proses DP -->
  <rect x="18" y="310" width="354" height="86" rx="16" fill="#0c0c14" stroke="rgba(255,255,255,0.08)" stroke-width="1"/>
  <rect x="18" y="324" width="3" height="56" rx="1.5" fill="#f59e0b"/>
  <text x="32" y="334" font-family="system-ui,sans-serif" font-size="14" font-weight="700" fill="#f0f0f8">Siti Rahma</text>
  <rect x="272" y="324" width="68" height="18" rx="9" fill="rgba(245,158,11,0.15)"/>
  <text x="306" y="337" font-size="10" font-weight="700" fill="#f59e0b" text-anchor="middle">Proses DP</text>
  <text x="32" y="350" font-family="system-ui,sans-serif" font-size="11" fill="#4a4a68">T45/90 · Kav. B-12</text>
  <rect x="28" y="360" width="330" height="28" rx="8" fill="rgba(255,255,255,0.04)"/>
  <text x="40" y="378" font-family="system-ui,sans-serif" font-size="11" fill="#4a4a68">📞 082198765432</text>
  <text x="178" y="378" font-family="system-ui,sans-serif" font-size="11" fill="#4a4a68">💰 450jt</text>
  <text x="268" y="378" font-family="system-ui,sans-serif" font-size="11" fill="#4a4a68">📁 3/6</text>

  <!-- Card 3 - Berkas -->
  <rect x="18" y="406" width="354" height="86" rx="16" fill="#0c0c14" stroke="rgba(255,255,255,0.08)" stroke-width="1"/>
  <rect x="18" y="420" width="3" height="56" rx="1.5" fill="#a855f7"/>
  <text x="32" y="430" font-family="system-ui,sans-serif" font-size="14" font-weight="700" fill="#f0f0f8">Andi Firmansyah</text>
  <rect x="246" y="420" width="98" height="18" rx="9" fill="rgba(168,85,247,0.15)"/>
  <text x="295" y="433" font-size="10" font-weight="700" fill="#a855f7" text-anchor="middle">Kumpul Berkas</text>
  <text x="32" y="446" font-family="system-ui,sans-serif" font-size="11" fill="#4a4a68">T36/60 · Kav. C-08</text>
  <rect x="28" y="456" width="330" height="28" rx="8" fill="rgba(255,255,255,0.04)"/>
  <text x="40" y="474" font-family="system-ui,sans-serif" font-size="11" fill="#4a4a68">📞 085678901234</text>
  <text x="178" y="474" font-family="system-ui,sans-serif" font-size="11" fill="#4a4a68">💰 280jt</text>
  <text x="268" y="474" font-family="system-ui,sans-serif" font-size="11" fill="#4a4a68">📁 5/6</text>

  <!-- Card 4 - Selesai -->
  <rect x="18" y="502" width="354" height="86" rx="16" fill="rgba(16,185,129,0.03)" stroke="rgba(255,255,255,0.07)" stroke-width="1"/>
  <rect x="18" y="516" width="3" height="56" rx="1.5" fill="#10b981"/>
  <text x="32" y="526" font-family="system-ui,sans-serif" font-size="14" font-weight="700" fill="#f0f0f8">Dewi Lestari</text>
  <rect x="276" y="516" width="62" height="18" rx="9" fill="rgba(16,185,129,0.15)"/>
  <text x="307" y="529" font-size="10" font-weight="700" fill="#10b981" text-anchor="middle">Selesai</text>
  <text x="32" y="542" font-family="system-ui,sans-serif" font-size="11" fill="#4a4a68">T54/120 · Kav. D-03</text>
  <rect x="28" y="552" width="330" height="28" rx="8" fill="rgba(255,255,255,0.04)"/>
  <text x="40" y="570" font-family="system-ui,sans-serif" font-size="11" fill="#4a4a68">📞 087712345678</text>
  <text x="178" y="570" font-family="system-ui,sans-serif" font-size="11" fill="#4a4a68">💰 650jt</text>
  <text x="268" y="570" font-family="system-ui,sans-serif" font-size="11" fill="#4a4a68">📁 6/6</text>

  <!-- Card 5 - Booking -->
  <rect x="18" y="598" width="354" height="86" rx="16" fill="rgba(99,102,241,0.03)" stroke="rgba(255,255,255,0.07)" stroke-width="1"/>
  <rect x="18" y="612" width="3" height="56" rx="1.5" fill="#6366f1"/>
  <text x="32" y="622" font-family="system-ui,sans-serif" font-size="14" font-weight="700" fill="#f0f0f8">Rizky Pratama</text>
  <rect x="282" y="612" width="56" height="18" rx="9" fill="rgba(99,102,241,0.15)"/>
  <text x="310" y="625" font-size="10" font-weight="700" fill="#818cf8" text-anchor="middle">Booking</text>
  <text x="32" y="638" font-family="system-ui,sans-serif" font-size="11" fill="#4a4a68">T36/72 · Kav. A-11</text>
  <rect x="28" y="648" width="330" height="28" rx="8" fill="rgba(255,255,255,0.04)"/>
  <text x="40" y="666" font-family="system-ui,sans-serif" font-size="11" fill="#4a4a68">📞 081387654321</text>
  <text x="178" y="666" font-family="system-ui,sans-serif" font-size="11" fill="#4a4a68">💰 360jt</text>
  <text x="268" y="666" font-family="system-ui,sans-serif" font-size="11" fill="#4a4a68">📁 0/6</text>

  <!-- FAB -->
  <circle cx="349" cy="712" r="28" fill="rgba(99,102,241,0.35)" filter="url(#orb)"/>
  <rect x="321" y="684" width="56" height="56" rx="18" fill="url(#brandGrad)"/>
  <text x="349" y="718" font-size="26" text-anchor="middle" fill="white" font-weight="300">＋</text>

  <!-- TAB BAR -->
  <rect x="0" y="758" width="390" height="86" fill="rgba(5,5,8,0.96)"/>
  <rect x="0" y="758" width="390" height="1" fill="rgba(255,255,255,0.08)"/>
  <text x="48" y="783" font-size="22" text-anchor="middle" opacity="0.3">🏠</text>
  <text x="48" y="801" font-family="system-ui,sans-serif" font-size="9" font-weight="600" fill="#2e2e42" text-anchor="middle">Dashboard</text>
  <text x="146" y="783" font-size="22" text-anchor="middle">👥</text>
  <text x="146" y="801" font-family="system-ui,sans-serif" font-size="9" font-weight="600" fill="#818cf8" text-anchor="middle">Konsumen</text>
  <text x="244" y="783" font-size="22" text-anchor="middle" opacity="0.3">📊</text>
  <text x="244" y="801" font-family="system-ui,sans-serif" font-size="9" font-weight="600" fill="#2e2e42" text-anchor="middle">Laporan</text>
  <text x="342" y="783" font-size="22" text-anchor="middle" opacity="0.3">⚙️</text>
  <text x="342" y="801" font-family="system-ui,sans-serif" font-size="9" font-weight="600" fill="#2e2e42" text-anchor="middle">Pengaturan</text>
  <rect x="155" y="826" width="80" height="4" rx="2" fill="rgba(255,255,255,0.15)"/>
</svg>
