<svg xmlns="http://www.w3.org/2000/svg" viewBox="0 0 390 844" width="390" height="844">
<defs>
  <linearGradient id="brand" x1="0%" y1="0%" x2="100%" y2="100%"><stop offset="0%" stop-color="#6366f1"/><stop offset="100%" stop-color="#a855f7"/></linearGradient>
  <clipPath id="phone"><rect x="0" y="0" width="390" height="844" rx="44"/></clipPath>
</defs>
<g clip-path="url(#phone)">
  <rect width="390" height="844" fill="#f5f5fa"/>
  <rect width="390" height="44" fill="#f5f5fa"/>
  <text x="28" y="29" font-family="SF Pro Display, system-ui" font-size="13" font-weight="600" fill="#0f0f1a">9:41</text>
  <rect x="310" y="18" width="42" height="13" rx="3" fill="none" stroke="#0f0f1a" stroke-width="1.2" stroke-opacity=".4"/>
  <rect x="312" y="20" width="32" height="9" rx="1.5" fill="#10b981"/>
  <!-- Auth card -->
  <rect x="24" y="80" width="342" height="684" rx="24" fill="white" stroke="rgba(0,0,0,0.06)" stroke-width="1"/>
  <!-- Logo area -->
  <rect x="155" y="116" width="80" height="80" rx="22" fill="#6366f1"/>
  <path d="M195 132L174 148V166H184.5V156H205.5V166H216V148Z" fill="white" opacity="0.9"/>
  <circle cx="210" cy="138" r="7" fill="#6366f1"/>
  <circle cx="210" cy="138" r="4.5" fill="white"/>
  <circle cx="210" cy="138" r="1.8" fill="#6366f1"/>
  <text x="195" y="214" font-family="SF Pro Display, system-ui" font-size="22" font-weight="900" letter-spacing="-1" fill="#0f0f1a" text-anchor="middle">Prop<tspan fill="#6366f1">Map</tspan></text>
  <!-- Heading -->
  <text x="195" y="256" font-family="SF Pro Display, system-ui" font-size="22" font-weight="800" fill="#0f0f1a" text-anchor="middle">Selamat Datang</text>
  <text x="195" y="276" font-family="SF Pro Display, system-ui" font-size="13" fill="#9090b8" text-anchor="middle">Masuk ke workspace marketing Anda</text>
  <!-- Tabs -->
  <rect x="48" y="292" width="294" height="38" rx="12" fill="#f0f0f8"/>
  <rect x="52" y="296" width="140" height="30" rx="10" fill="white"/>
  <text x="122" y="316" font-family="SF Pro Display, system-ui" font-size="13" font-weight="700" fill="#0f0f1a" text-anchor="middle">Masuk</text>
  <text x="262" y="316" font-family="SF Pro Display, system-ui" font-size="13" font-weight="600" fill="#9090b8" text-anchor="middle">Daftar</text>
  <!-- Input fields -->
  <text x="48" y="354" font-family="SF Pro Display, system-ui" font-size="10" font-weight="700" fill="#9090b8" letter-spacing="0.5">EMAIL</text>
  <rect x="48" y="362" width="294" height="42" rx="12" fill="#f8f8fc" stroke="rgba(0,0,0,0.08)" stroke-width="1.5"/>
  <text x="64" y="388" font-family="SF Pro Display, system-ui" font-size="13" fill="#b0b0cc">email@perusahaan.com</text>
  <text x="48" y="422" font-family="SF Pro Display, system-ui" font-size="10" font-weight="700" fill="#9090b8" letter-spacing="0.5">PASSWORD</text>
  <rect x="48" y="430" width="294" height="42" rx="12" fill="#f8f8fc" stroke="rgba(0,0,0,0.08)" stroke-width="1.5"/>
  <text x="64" y="456" font-family="SF Pro Display, system-ui" font-size="13" fill="#b0b0cc">Password Anda</text>
  <text x="322" y="456" font-family="serif" font-size="14" fill="#b0b0cc" text-anchor="middle">👁</text>
  <!-- Masuk button -->
  <rect x="48" y="486" width="294" height="46" rx="14" fill="#6366f1"/>
  <text x="195" y="514" font-family="SF Pro Display, system-ui" font-size="14" font-weight="700" fill="white" text-anchor="middle">Masuk →</text>
  <text x="195" y="548" font-family="SF Pro Display, system-ui" font-size="12" fill="#6366f1" text-anchor="middle">Lupa password?</text>
  <!-- Divider -->
  <line x1="48" y1="570" x2="172" y2="570" stroke="rgba(0,0,0,0.1)" stroke-width="1"/>
  <text x="195" y="574" font-family="SF Pro Display, system-ui" font-size="11" fill="#b0b0cc" text-anchor="middle">atau</text>
  <line x1="218" y1="570" x2="342" y2="570" stroke="rgba(0,0,0,0.1)" stroke-width="1"/>
  <!-- Google button -->
  <rect x="48" y="584" width="294" height="46" rx="14" fill="white" stroke="rgba(0,0,0,0.1)" stroke-width="1.5"/>
  <!-- Google G logo -->
  <circle cx="100" cy="607" r="12" fill="white"/>
  <text x="100" y="613" font-family="serif" font-size="16" text-anchor="middle">G</text>
  <text x="195" y="612" font-family="SF Pro Display, system-ui" font-size="13" font-weight="700" fill="#0f0f1a" text-anchor="middle">Masuk dengan Google</text>
  <!-- Verify email panel preview -->
  <rect x="48" y="648" width="294" height="96" rx="16" fill="#eeedfe" stroke="rgba(99,102,241,0.2)" stroke-width="1"/>
  <text x="195" y="674" font-family="SF Pro Display, system-ui" font-size="22" text-anchor="middle">📧</text>
  <text x="195" y="696" font-family="SF Pro Display, system-ui" font-size="12" font-weight="700" fill="#3c3489" text-anchor="middle">Cek email konfirmasi Anda</text>
  <text x="195" y="712" font-family="SF Pro Display, system-ui" font-size="10" fill="#534ab7" text-anchor="middle">user@gmail.com</text>
  <text x="195" y="730" font-family="SF Pro Display, system-ui" font-size="9" fill="#7f77dd" text-anchor="middle">Klik link di email untuk mengaktifkan akun</text>
  <!-- Outer border -->
  <rect x="0" y="0" width="390" height="844" rx="44" fill="none" stroke="rgba(0,0,0,0.07)" stroke-width="1.5"/>
</g>
</svg>
