<svg xmlns="http://www.w3.org/2000/svg" viewBox="0 0 390 844" width="390" height="844">
  <defs>
    <linearGradient id="brandGrad" x1="0" y1="0" x2="1" y2="1"><stop offset="0%" stop-color="#6366f1"/><stop offset="100%" stop-color="#a855f7"/></linearGradient>
    <linearGradient id="detHero" x1="0" y1="0" x2="1" y2="0"><stop offset="0%" stop-color="#18182a"/><stop offset="100%" stop-color="#0c0c12"/></linearGradient>
    <filter id="orb"><feGaussianBlur stdDeviation="30"/></filter>
  </defs>
  <rect width="390" height="844" fill="#050508"/>

  <!-- MODAL SHEET OVERLAY -->
  <rect width="390" height="844" fill="rgba(0,0,0,0.6)"/>

  <!-- MODAL SHEET -->
  <rect x="0" y="80" width="390" height="764" rx="24" fill="#111118"/>
  <rect x="0" y="80" width="390" height="764" rx="24" fill="none" stroke="rgba(255,255,255,0.12)" stroke-width="1"/>

  <!-- pill handle -->
  <rect x="177" y="92" width="36" height="4" rx="2" fill="#1e1e28"/>

  <!-- sheet header -->
  <text x="20" y="132" font-family="system-ui,sans-serif" font-size="16" font-weight="700" fill="#f0f0f8">Detail Konsumen</text>
  <rect x="344" y="115" width="30" height="28" rx="8" fill="#18181f" stroke="rgba(255,255,255,0.08)" stroke-width="1"/>
  <text x="359" y="134" font-size="14" text-anchor="middle" fill="#4a4a68">✕</text>
  <rect x="0" y="147" width="390" height="1" fill="rgba(255,255,255,0.07)"/>

  <!-- DETAIL HERO -->
  <rect x="0" y="148" width="390" height="96" fill="url(#detHero)"/>
  <ellipse cx="320" cy="196" rx="100" ry="80" fill="rgba(99,102,241,0.1)" filter="url(#orb)"/>
  <rect x="20" y="162" width="60" height="60" rx="18" fill="#6366f1"/>
  <text x="50" y="200" font-size="24" font-weight="800" fill="white" text-anchor="middle">S</text>
  <text x="92" y="180" font-family="system-ui,sans-serif" font-size="19" font-weight="800" fill="#f0f0f8" letter-spacing="-0.8">Siti Rahma</text>
  <text x="92" y="198" font-family="system-ui,sans-serif" font-size="12" fill="#4a4a68">T45/90 · Kav. B-12</text>
  <rect x="92" y="206" width="68" height="19" rx="9" fill="rgba(245,158,11,0.15)"/>
  <text x="126" y="219" font-size="10" font-weight="700" fill="#f59e0b" text-anchor="middle">Proses DP</text>

  <!-- QUICK ACTIONS -->
  <rect x="20" y="258" width="82" height="60" rx="12" fill="rgba(16,185,129,0.1)" stroke="rgba(16,185,129,0.25)" stroke-width="1"/>
  <text x="61" y="280" font-size="20" text-anchor="middle">📞</text>
  <text x="61" y="306" font-family="system-ui,sans-serif" font-size="11" font-weight="700" fill="#059669" text-anchor="middle">Telepon</text>

  <rect x="112" y="258" width="82" height="60" rx="12" fill="rgba(16,185,129,0.1)" stroke="rgba(16,185,129,0.25)" stroke-width="1"/>
  <text x="153" y="280" font-size="20" text-anchor="middle">💬</text>
  <text x="153" y="306" font-family="system-ui,sans-serif" font-size="11" font-weight="700" fill="#059669" text-anchor="middle">WhatsApp</text>

  <rect x="204" y="258" width="82" height="60" rx="12" fill="rgba(99,102,241,0.1)" stroke="rgba(99,102,241,0.25)" stroke-width="1"/>
  <text x="245" y="280" font-size="20" text-anchor="middle">✏️</text>
  <text x="245" y="306" font-family="system-ui,sans-serif" font-size="11" font-weight="700" fill="#818cf8" text-anchor="middle">Edit</text>

  <rect x="296" y="258" width="74" height="60" rx="12" fill="rgba(245,158,11,0.1)" stroke="rgba(245,158,11,0.25)" stroke-width="1"/>
  <text x="333" y="280" font-size="20" text-anchor="middle">📝</text>
  <text x="333" y="306" font-family="system-ui,sans-serif" font-size="11" font-weight="700" fill="#f59e0b" text-anchor="middle">Catat</text>

  <!-- INFO SECTION -->
  <rect x="0" y="330" width="390" height="1" fill="rgba(255,255,255,0.07)"/>
  <text x="20" y="355" font-family="system-ui,sans-serif" font-size="9.5" font-weight="700" fill="#2e2e42" text-transform="uppercase" letter-spacing="1">INFORMASI</text>
  <rect x="0" y="363" width="390" height="1" fill="rgba(255,255,255,0.05)"/>

  <text x="20" y="385" font-family="system-ui,sans-serif" font-size="12" fill="#4a4a68">No. HP</text>
  <text x="370" y="385" font-family="system-ui,sans-serif" font-size="12" font-weight="700" fill="#818cf8" text-anchor="end">082198765432</text>
  <line x1="20" y1="394" x2="370" y2="394" stroke="rgba(255,255,255,0.05)" stroke-width="1"/>

  <text x="20" y="414" font-family="system-ui,sans-serif" font-size="12" fill="#4a4a68">Harga Unit</text>
  <text x="370" y="414" font-family="system-ui,sans-serif" font-size="12" font-weight="700" fill="#818cf8" text-anchor="end">Rp 450.000.000</text>
  <line x1="20" y1="424" x2="370" y2="424" stroke="rgba(255,255,255,0.05)" stroke-width="1"/>

  <text x="20" y="444" font-family="system-ui,sans-serif" font-size="12" fill="#4a4a68">Jumlah DP</text>
  <text x="370" y="444" font-family="system-ui,sans-serif" font-size="12" font-weight="700" fill="#f0f0f8" text-anchor="end">Rp 15.000.000</text>
  <line x1="20" y1="454" x2="370" y2="454" stroke="rgba(255,255,255,0.05)" stroke-width="1"/>

  <text x="20" y="474" font-family="system-ui,sans-serif" font-size="12" fill="#4a4a68">Pembiayaan</text>
  <text x="370" y="474" font-family="system-ui,sans-serif" font-size="12" font-weight="700" fill="#f0f0f8" text-anchor="end">KPR BNI</text>
  <line x1="20" y1="484" x2="370" y2="484" stroke="rgba(255,255,255,0.05)" stroke-width="1"/>

  <text x="20" y="504" font-family="system-ui,sans-serif" font-size="12" fill="#4a4a68">Sumber</text>
  <text x="370" y="504" font-family="system-ui,sans-serif" font-size="12" font-weight="700" fill="#f0f0f8" text-anchor="end">Media Sosial</text>

  <!-- BERKAS SECTION -->
  <rect x="0" y="518" width="390" height="1" fill="rgba(255,255,255,0.07)"/>
  <text x="20" y="540" font-family="system-ui,sans-serif" font-size="9.5" font-weight="700" fill="#2e2e42" letter-spacing="1">CHECKLIST BERKAS</text>
  <rect x="0" y="548" width="390" height="1" fill="rgba(255,255,255,0.05)"/>

  <!-- berkas items -->
  <g>
    <rect x="20" y="560" width="22" height="22" rx="6" fill="#10b981"/>
    <text x="31" y="576" font-size="12" text-anchor="middle" fill="white">✓</text>
    <text x="52" y="576" font-family="system-ui,sans-serif" font-size="13" fill="#4a4a68" text-decoration="line-through">KTP / e-KTP</text>
    <line x1="20" y1="590" x2="370" y2="590" stroke="rgba(255,255,255,0.05)" stroke-width="1"/>
  </g>
  <g>
    <rect x="20" y="600" width="22" height="22" rx="6" fill="#10b981"/>
    <text x="31" y="616" font-size="12" text-anchor="middle" fill="white">✓</text>
    <text x="52" y="616" font-family="system-ui,sans-serif" font-size="13" fill="#4a4a68" text-decoration="line-through">Kartu Keluarga</text>
    <line x1="20" y1="630" x2="370" y2="630" stroke="rgba(255,255,255,0.05)" stroke-width="1"/>
  </g>
  <g>
    <rect x="20" y="640" width="22" height="22" rx="6" fill="#10b981"/>
    <text x="31" y="656" font-size="12" text-anchor="middle" fill="white">✓</text>
    <text x="52" y="656" font-family="system-ui,sans-serif" font-size="13" fill="#4a4a68" text-decoration="line-through">Slip Gaji / SK Kerja</text>
    <line x1="20" y1="670" x2="370" y2="670" stroke="rgba(255,255,255,0.05)" stroke-width="1"/>
  </g>
  <g>
    <rect x="20" y="680" width="22" height="22" rx="6" fill="none" stroke="#1e1e28" stroke-width="2"/>
    <text x="52" y="696" font-family="system-ui,sans-serif" font-size="13" fill="#f0f0f8">Rekening Tabungan 3 Bln</text>
    <line x1="20" y1="710" x2="370" y2="710" stroke="rgba(255,255,255,0.05)" stroke-width="1"/>
  </g>
  <g>
    <rect x="20" y="720" width="22" height="22" rx="6" fill="none" stroke="#1e1e28" stroke-width="2"/>
    <text x="52" y="736" font-family="system-ui,sans-serif" font-size="13" fill="#f0f0f8">NPWP</text>
    <line x1="20" y1="750" x2="370" y2="750" stroke="rgba(255,255,255,0.05)" stroke-width="1"/>
  </g>
  <g>
    <rect x="20" y="760" width="22" height="22" rx="6" fill="none" stroke="#1e1e28" stroke-width="2"/>
    <text x="52" y="776" font-family="system-ui,sans-serif" font-size="13" fill="#f0f0f8">Surat Keterangan Lainnya</text>
  </g>

  <!-- Berkas progress indicator -->
  <text x="20" y="812" font-family="system-ui,sans-serif" font-size="11" fill="#4a4a68">Progress berkas:</text>
  <rect x="122" y="801" width="164" height="8" rx="4" fill="#18181f"/>
  <rect x="122" y="801" width="82" height="8" rx="4" fill="#10b981"/>
  <text x="295" y="812" font-family="system-ui,sans-serif" font-size="11" font-weight="700" fill="#10b981">3 / 6</text>
</svg>
