<svg xmlns="http://www.w3.org/2000/svg" viewBox="0 0 390 844" width="390" height="844">
<defs>
  <linearGradient id="brand" x1="0%" y1="0%" x2="100%" y2="100%"><stop offset="0%" stop-color="#6366f1"/><stop offset="100%" stop-color="#a855f7"/></linearGradient>
  <clipPath id="phone"><rect x="0" y="0" width="390" height="844" rx="44"/></clipPath>
</defs>
<g clip-path="url(#phone)">
  <rect width="390" height="844" fill="#050508"/>
  <rect width="390" height="44" fill="#050508"/>
  <text x="28" y="29" font-family="SF Pro Display, system-ui" font-size="13" font-weight="600" fill="#f0f0f8">9:41</text>
  <rect x="310" y="18" width="42" height="13" rx="3" fill="none" stroke="#f0f0f8" stroke-width="1.2" stroke-opacity=".6"/>
  <rect x="312" y="20" width="32" height="9" rx="1.5" fill="#10b981"/>
  <!-- Header -->
  <rect y="44" width="390" height="56" fill="rgba(5,5,8,0.94)"/>
  <rect y="99" width="390" height="1" fill="rgba(255,255,255,0.08)"/>
  <rect x="16" y="60" width="30" height="30" rx="8" fill="#6366f1"/>
  <path d="M31 66L23 72.5V80H27.5V75H34.5V80H39V72.5Z" fill="white" opacity="0.9"/>
  <circle cx="36.5" cy="68" r="3.5" fill="#6366f1"/>
  <circle cx="36.5" cy="68" r="2.2" fill="white"/>
  <circle cx="36.5" cy="68" r="0.9" fill="#6366f1"/>
  <text x="54" y="76" font-family="SF Pro Display, system-ui" font-size="17" font-weight="800" letter-spacing="-1" fill="#f0f0f8">Prop<tspan fill="#818cf8">Map</tspan></text>
  <!-- Search -->
  <rect y="100" width="390" height="50" fill="rgba(5,5,8,0.9)"/>
  <rect x="18" y="109" width="310" height="34" rx="10" fill="#18181f" stroke="rgba(255,255,255,0.08)" stroke-width="1.5"/>
  <text x="34" y="129" font-family="serif" font-size="13" fill="#4a4a68">🔍</text>
  <text x="52" y="130" font-family="SF Pro Display, system-ui" font-size="12" fill="#2e2e42">Cari nama, HP, unit...</text>
  <rect x="334" y="109" width="40" height="34" rx="10" fill="rgba(99,102,241,0.12)" stroke="rgba(99,102,241,0.3)" stroke-width="1.5"/>
  <text x="354" y="129" font-family="SF Pro Display, system-ui" font-size="11" font-weight="700" text-anchor="middle" fill="#818cf8">⚙ 2</text>
  <!-- Filter Lanjutan Panel -->
  <rect y="150" width="390" height="1" fill="rgba(255,255,255,0.06)"/>
  <rect x="16" y="158" width="358" height="410" rx="14" fill="#0d0d14" stroke="rgba(99,102,241,0.2)" stroke-width="1"/>
  <!-- Rentang Harga -->
  <text x="28" y="180" font-family="SF Pro Display, system-ui" font-size="9" font-weight="700" fill="#4a4a68" letter-spacing="0.8">RENTANG HARGA (RP)</text>
  <rect x="28" y="188" width="148" height="28" rx="8" fill="rgba(255,255,255,0.05)" stroke="rgba(255,255,255,0.1)" stroke-width="1"/>
  <text x="40" y="206" font-family="SF Pro Display, system-ui" font-size="11" fill="#f0f0f8">200.000.000</text>
  <text x="188" y="204" font-family="SF Pro Display, system-ui" font-size="12" fill="#4a4a68">—</text>
  <rect x="200" y="188" width="148" height="28" rx="8" fill="rgba(255,255,255,0.05)" stroke="rgba(255,255,255,0.1)" stroke-width="1"/>
  <text x="212" y="206" font-family="SF Pro Display, system-ui" font-size="11" fill="#f0f0f8">600.000.000</text>
  <!-- Sumber Leads -->
  <rect y="226" width="390" height="1" fill="rgba(255,255,255,0.05)"/>
  <text x="28" y="244" font-family="SF Pro Display, system-ui" font-size="9" font-weight="700" fill="#4a4a68" letter-spacing="0.8">SUMBER LEADS</text>
  <rect x="28" y="252" width="56" height="22" rx="11" fill="rgba(255,255,255,0.05)" stroke="rgba(255,255,255,0.08)" stroke-width="1"/>
  <text x="56" y="267" font-family="SF Pro Display, system-ui" font-size="9" text-anchor="middle" fill="#4a4a68">Semua</text>
  <rect x="90" y="252" width="52" height="22" rx="11" fill="rgba(99,102,241,0.12)" stroke="rgba(99,102,241,0.4)" stroke-width="1.5"/>
  <text x="116" y="267" font-family="SF Pro Display, system-ui" font-size="9" font-weight="700" text-anchor="middle" fill="#818cf8">TikTok</text>
  <rect x="148" y="252" width="60" height="22" rx="11" fill="rgba(255,255,255,0.05)" stroke="rgba(255,255,255,0.08)" stroke-width="1"/>
  <text x="178" y="267" font-family="SF Pro Display, system-ui" font-size="9" text-anchor="middle" fill="#4a4a68">Facebook</text>
  <rect x="214" y="252" width="66" height="22" rx="11" fill="rgba(255,255,255,0.05)" stroke="rgba(255,255,255,0.08)" stroke-width="1"/>
  <text x="247" y="267" font-family="SF Pro Display, system-ui" font-size="9" text-anchor="middle" fill="#4a4a68">Instagram</text>
  <rect x="286" y="252" width="52" height="22" rx="11" fill="rgba(255,255,255,0.05)" stroke="rgba(255,255,255,0.08)" stroke-width="1"/>
  <text x="312" y="267" font-family="SF Pro Display, system-ui" font-size="9" text-anchor="middle" fill="#4a4a68">Broker</text>
  <!-- KPR -->
  <rect y="284" width="390" height="1" fill="rgba(255,255,255,0.05)"/>
  <text x="28" y="302" font-family="SF Pro Display, system-ui" font-size="9" font-weight="700" fill="#4a4a68" letter-spacing="0.8">JENIS PEMBIAYAAN</text>
  <rect x="28" y="310" width="56" height="22" rx="11" fill="rgba(255,255,255,0.05)" stroke="rgba(255,255,255,0.08)" stroke-width="1"/>
  <text x="56" y="325" font-family="SF Pro Display, system-ui" font-size="9" text-anchor="middle" fill="#4a4a68">Semua</text>
  <rect x="90" y="310" width="62" height="22" rx="11" fill="rgba(255,255,255,0.05)" stroke="rgba(255,255,255,0.08)" stroke-width="1"/>
  <text x="121" y="325" font-family="SF Pro Display, system-ui" font-size="9" text-anchor="middle" fill="#4a4a68">KPR BTN</text>
  <rect x="158" y="310" width="62" height="22" rx="11" fill="rgba(255,255,255,0.05)" stroke="rgba(255,255,255,0.08)" stroke-width="1"/>
  <text x="189" y="325" font-family="SF Pro Display, system-ui" font-size="9" text-anchor="middle" fill="#4a4a68">KPR BNI</text>
  <rect x="226" y="310" width="62" height="22" rx="11" fill="rgba(255,255,255,0.05)" stroke="rgba(255,255,255,0.08)" stroke-width="1"/>
  <text x="257" y="325" font-family="SF Pro Display, system-ui" font-size="9" text-anchor="middle" fill="#4a4a68">KPR BRI</text>
  <rect x="294" y="310" width="72" height="22" rx="11" fill="rgba(99,102,241,0.12)" stroke="rgba(99,102,241,0.4)" stroke-width="1.5"/>
  <text x="330" y="325" font-family="SF Pro Display, system-ui" font-size="9" font-weight="700" text-anchor="middle" fill="#818cf8">Cash Keras</text>
  <!-- Tanggal Booking -->
  <rect y="342" width="390" height="1" fill="rgba(255,255,255,0.05)"/>
  <text x="28" y="360" font-family="SF Pro Display, system-ui" font-size="9" font-weight="700" fill="#4a4a68" letter-spacing="0.8">TANGGAL BOOKING</text>
  <rect x="28" y="368" width="148" height="28" rx="8" fill="rgba(255,255,255,0.05)" stroke="rgba(255,255,255,0.1)" stroke-width="1"/>
  <text x="40" y="386" font-family="SF Pro Display, system-ui" font-size="11" fill="#f0f0f8">2026-01-01</text>
  <text x="188" y="384" font-family="SF Pro Display, system-ui" font-size="12" fill="#4a4a68">—</text>
  <rect x="200" y="368" width="148" height="28" rx="8" fill="rgba(255,255,255,0.05)" stroke="rgba(255,255,255,0.1)" stroke-width="1"/>
  <text x="212" y="386" font-family="SF Pro Display, system-ui" font-size="11" fill="#f0f0f8">2026-03-31</text>
  <!-- Berkas -->
  <rect y="406" width="390" height="1" fill="rgba(255,255,255,0.05)"/>
  <text x="28" y="424" font-family="SF Pro Display, system-ui" font-size="9" font-weight="700" fill="#4a4a68" letter-spacing="0.8">KELENGKAPAN BERKAS</text>
  <rect x="28" y="432" width="56" height="22" rx="11" fill="rgba(255,255,255,0.05)" stroke="rgba(255,255,255,0.08)" stroke-width="1"/>
  <text x="56" y="447" font-family="SF Pro Display, system-ui" font-size="9" text-anchor="middle" fill="#4a4a68">Semua</text>
  <rect x="90" y="432" width="80" height="22" rx="11" fill="rgba(255,255,255,0.05)" stroke="rgba(255,255,255,0.08)" stroke-width="1"/>
  <text x="130" y="447" font-family="SF Pro Display, system-ui" font-size="9" text-anchor="middle" fill="#4a4a68">Sudah Lengkap</text>
  <rect x="176" y="432" width="80" height="22" rx="11" fill="rgba(255,255,255,0.05)" stroke="rgba(255,255,255,0.08)" stroke-width="1"/>
  <text x="216" y="447" font-family="SF Pro Display, system-ui" font-size="9" text-anchor="middle" fill="#4a4a68">Belum Lengkap</text>
  <!-- Follow-up -->
  <rect y="464" width="390" height="1" fill="rgba(255,255,255,0.05)"/>
  <text x="28" y="482" font-family="SF Pro Display, system-ui" font-size="9" font-weight="700" fill="#4a4a68" letter-spacing="0.8">JADWAL FOLLOW-UP</text>
  <rect x="28" y="490" width="56" height="22" rx="11" fill="rgba(255,255,255,0.05)" stroke="rgba(255,255,255,0.08)" stroke-width="1"/>
  <text x="56" y="505" font-family="SF Pro Display, system-ui" font-size="9" text-anchor="middle" fill="#4a4a68">Semua</text>
  <rect x="90" y="490" width="58" height="22" rx="11" fill="rgba(245,158,11,0.12)" stroke="rgba(245,158,11,0.3)" stroke-width="1.5"/>
  <text x="119" y="505" font-family="SF Pro Display, system-ui" font-size="9" font-weight="700" text-anchor="middle" fill="#f59e0b">Hari Ini</text>
  <rect x="154" y="490" width="70" height="22" rx="11" fill="rgba(255,255,255,0.05)" stroke="rgba(255,255,255,0.08)" stroke-width="1"/>
  <text x="189" y="505" font-family="SF Pro Display, system-ui" font-size="9" text-anchor="middle" fill="#4a4a68">Minggu Ini</text>
  <rect x="230" y="490" width="62" height="22" rx="11" fill="rgba(255,255,255,0.05)" stroke="rgba(255,255,255,0.08)" stroke-width="1"/>
  <text x="261" y="505" font-family="SF Pro Display, system-ui" font-size="9" text-anchor="middle" fill="#4a4a68">Terlambat</text>
  <!-- Reset button -->
  <rect x="28" y="520" width="330" height="32" rx="10" fill="transparent" stroke="rgba(255,255,255,0.1)" stroke-width="1"/>
  <text x="193" y="540" font-family="SF Pro Display, system-ui" font-size="11" font-weight="700" text-anchor="middle" fill="#4a4a68">✕ Reset Semua Filter</text>
  <!-- Result count -->
  <text x="28" y="580" font-family="SF Pro Display, system-ui" font-size="10" font-weight="700" fill="#4a4a68">3 dari 7 konsumen</text>
  <!-- Card hasil -->
  <rect x="16" y="590" width="358" height="76" rx="14" fill="#0d0d14" stroke="rgba(255,255,255,0.07)" stroke-width="1"/>
  <rect x="16" y="600" width="3" height="34" rx="1.5" fill="#6366f1"/>
  <text x="28" y="614" font-family="SF Pro Display, system-ui" font-size="13" font-weight="700" fill="#f0f0f8">Budi Santoso</text>
  <text x="28" y="630" font-family="SF Pro Display, system-ui" font-size="10" fill="#4a4a68">T36/72 · Kav. A-05</text>
  <rect x="284" y="596" width="56" height="16" rx="8" fill="rgba(99,102,241,0.12)"/>
  <text x="312" y="607" font-family="SF Pro Display, system-ui" font-size="8" font-weight="700" text-anchor="middle" fill="#818cf8">Booking</text>
  <rect x="28" y="640" width="318" height="20" rx="5" fill="rgba(255,255,255,0.04)"/>
  <text x="40" y="654" font-family="SF Pro Display, system-ui" font-size="9" fill="#4a4a68">📞 081234567890   💰 Rp 350jt   📁 1/3</text>
  <!-- Tab bar -->
  <rect y="754" width="390" height="90" fill="rgba(5,5,8,0.96)"/>
  <rect y="754" width="390" height="1" fill="rgba(255,255,255,0.08)"/>
  <text x="39" y="785" font-family="serif" font-size="22" text-anchor="middle" fill="#2e2e42">🏠</text>
  <text x="117" y="785" font-family="serif" font-size="22" text-anchor="middle" fill="#818cf8">👥</text>
  <text x="117" y="800" font-family="SF Pro Display, system-ui" font-size="10" font-weight="600" text-anchor="middle" fill="#818cf8">Konsumen</text>
  <text x="195" y="785" font-family="serif" font-size="22" text-anchor="middle" fill="#2e2e42">📅</text>
  <text x="273" y="785" font-family="serif" font-size="22" text-anchor="middle" fill="#2e2e42">📊</text>
  <text x="351" y="785" font-family="serif" font-size="22" text-anchor="middle" fill="#2e2e42">⚙️</text>
  <rect x="155" y="828" width="80" height="4" rx="2" fill="rgba(255,255,255,0.2)"/>
  <rect x="0" y="0" width="390" height="844" rx="44" fill="none" stroke="rgba(255,255,255,0.09)" stroke-width="1.5"/>
</g>
</svg>
