<svg xmlns="http://www.w3.org/2000/svg" viewBox="0 0 390 844" width="390" height="844">
<defs>
  <linearGradient id="brand" x1="0%" y1="0%" x2="100%" y2="100%"><stop offset="0%" stop-color="#4f46e5"/><stop offset="100%" stop-color="#7c3aed"/></linearGradient>
  <linearGradient id="target-bg" x1="0%" y1="0%" x2="100%" y2="100%"><stop offset="0%" stop-color="rgba(79,70,229,0.1)"/><stop offset="100%" stop-color="rgba(124,58,237,0.06)"/></linearGradient>
  <clipPath id="phone"><rect x="0" y="0" width="390" height="844" rx="44"/></clipPath>
</defs>
<g clip-path="url(#phone)">
  <rect width="390" height="844" fill="#f5f5fa"/>
  <!-- Status bar -->
  <rect width="390" height="44" fill="#f5f5fa"/>
  <text x="28" y="29" font-family="SF Pro Display, system-ui" font-size="13" font-weight="600" fill="#0f0f1a">9:41</text>
  <!-- Header light -->
  <rect y="44" width="390" height="56" fill="rgba(245,245,250,0.92)"/>
  <rect y="99" width="390" height="1" fill="rgba(0,0,0,0.08)"/>
  <rect x="18" y="60" width="34" height="34" rx="10" fill="url(#brand)"/>
  <text x="35" y="82" font-family="serif" font-size="18" text-anchor="middle" fill="white">🎯</text>
  <text x="60" y="76" font-family="SF Pro Display, system-ui" font-size="17" font-weight="800" letter-spacing="-1" fill="#0f0f1a">Market<tspan fill="#6366f1">Pro</tspan></text>
  <rect x="200" y="62" width="108" height="28" rx="14" fill="rgba(0,0,0,0.04)" stroke="rgba(0,0,0,0.08)" stroke-width="1"/>
  <circle cx="214" cy="76" r="10" fill="url(#brand)"/>
  <text x="214" y="80" font-family="SF Pro Display, system-ui" font-size="10" font-weight="800" text-anchor="middle" fill="white">A</text>
  <text x="228" y="80" font-family="SF Pro Display, system-ui" font-size="11" font-weight="600" fill="#0f0f1a">Admin</text>
  <rect x="316" y="62" width="40" height="28" rx="10" fill="rgba(0,0,0,0.04)" stroke="rgba(0,0,0,0.08)" stroke-width="1"/>
  <text x="336" y="80" font-family="serif" font-size="15" text-anchor="middle" fill="#9090b0">☀️</text>
  <!-- Period filter -->
  <rect y="100" width="390" height="40" fill="#f5f5fa"/>
  <rect x="18" y="110" width="76" height="22" rx="11" fill="rgba(79,70,229,0.10)" stroke="rgba(79,70,229,0.4)" stroke-width="1.5"/>
  <text x="56" y="125" font-family="SF Pro Display, system-ui" font-size="10" font-weight="700" text-anchor="middle" fill="#4f46e5">Bulan Ini</text>
  <rect x="102" y="110" width="80" height="22" rx="11" fill="transparent" stroke="rgba(0,0,0,0.08)" stroke-width="1.5"/>
  <text x="142" y="125" font-family="SF Pro Display, system-ui" font-size="10" font-weight="700" text-anchor="middle" fill="#9090b0">Kuartal Ini</text>
  <rect x="190" y="110" width="66" height="22" rx="11" fill="transparent" stroke="rgba(0,0,0,0.08)" stroke-width="1.5"/>
  <text x="223" y="125" font-family="SF Pro Display, system-ui" font-size="10" font-weight="700" text-anchor="middle" fill="#9090b0">Tahun Ini</text>
  <rect x="264" y="110" width="46" height="22" rx="11" fill="transparent" stroke="rgba(0,0,0,0.08)" stroke-width="1.5"/>
  <text x="287" y="125" font-family="SF Pro Display, system-ui" font-size="10" font-weight="700" text-anchor="middle" fill="#9090b0">Semua</text>
  <!-- KPI cards -->
  <rect x="18" y="148" width="165" height="76" rx="18" fill="#ffffff" stroke="rgba(0,0,0,0.08)" stroke-width="1"/>
  <text x="34" y="172" font-family="serif" font-size="18">👥</text>
  <text x="34" y="192" font-family="SF Pro Display, system-ui" font-size="10" fill="#9090b0" font-weight="600">Total Konsumen</text>
  <text x="34" y="214" font-family="JetBrains Mono, monospace" font-size="22" font-weight="800" letter-spacing="-1.5" fill="#4f46e5">8</text>
  <rect x="199" y="148" width="165" height="76" rx="18" fill="#ffffff" stroke="rgba(0,0,0,0.08)" stroke-width="1"/>
  <text x="215" y="172" font-family="serif" font-size="18">✅</text>
  <text x="215" y="192" font-family="SF Pro Display, system-ui" font-size="10" fill="#9090b0" font-weight="600">Akad Selesai</text>
  <text x="215" y="214" font-family="JetBrains Mono, monospace" font-size="22" font-weight="800" letter-spacing="-1.5" fill="#059669">2</text>
  <rect x="18" y="232" width="165" height="76" rx="18" fill="#ffffff" stroke="rgba(0,0,0,0.08)" stroke-width="1"/>
  <text x="34" y="256" font-family="serif" font-size="18">💵</text>
  <text x="34" y="276" font-family="SF Pro Display, system-ui" font-size="10" fill="#9090b0" font-weight="600">Nilai Jual</text>
  <text x="34" y="298" font-family="JetBrains Mono, monospace" font-size="16" font-weight="800" letter-spacing="-1" fill="#d97706">Rp 1.130.000.000</text>
  <rect x="199" y="232" width="165" height="76" rx="18" fill="#ffffff" stroke="rgba(0,0,0,0.08)" stroke-width="1"/>
  <text x="215" y="256" font-family="serif" font-size="18">🏦</text>
  <text x="215" y="276" font-family="SF Pro Display, system-ui" font-size="10" fill="#9090b0" font-weight="600">DP Masuk</text>
  <text x="215" y="298" font-family="JetBrains Mono, monospace" font-size="16" font-weight="800" letter-spacing="-1" fill="#7c3aed">Rp 97.000.000</text>
  <!-- Pipeline chart area -->
  <text x="22" y="334" font-family="SF Pro Display, system-ui" font-size="13" font-weight="700" fill="#0f0f1a">🍩 Distribusi Pipeline</text>
  <rect x="18" y="344" width="354" height="140" rx="18" fill="#ffffff" stroke="rgba(0,0,0,0.08)" stroke-width="1"/>
  <!-- Donut chart mock -->
  <circle cx="120" cy="412" r="52" fill="none" stroke="#e8e8f0" stroke-width="22"/>
  <circle cx="120" cy="412" r="52" fill="none" stroke="#4f46e5" stroke-width="22" stroke-dasharray="65 262" stroke-dashoffset="0" stroke-linecap="butt"/>
  <circle cx="120" cy="412" r="52" fill="none" stroke="#d97706" stroke-width="22" stroke-dasharray="33 262" stroke-dashoffset="-65" stroke-linecap="butt"/>
  <circle cx="120" cy="412" r="52" fill="none" stroke="#7c3aed" stroke-width="22" stroke-dasharray="65 262" stroke-dashoffset="-98" stroke-linecap="butt"/>
  <circle cx="120" cy="412" r="52" fill="none" stroke="#059669" stroke-width="22" stroke-dasharray="65 262" stroke-dashoffset="-163" stroke-linecap="butt"/>
  <circle cx="120" cy="412" r="52" fill="none" stroke="#e11d48" stroke-width="22" stroke-dasharray="34 262" stroke-dashoffset="-228" stroke-linecap="butt"/>
  <text x="120" y="417" font-family="JetBrains Mono, monospace" font-size="14" font-weight="800" text-anchor="middle" fill="#0f0f1a">8</text>
  <!-- Legend -->
  <rect x="196" y="358" width="10" height="10" rx="2" fill="#4f46e5"/>
  <text x="210" y="368" font-family="SF Pro Display, system-ui" font-size="11" fill="#4a4a6a">Booking (2)</text>
  <rect x="196" y="376" width="10" height="10" rx="2" fill="#d97706"/>
  <text x="210" y="386" font-family="SF Pro Display, system-ui" font-size="11" fill="#4a4a6a">Proses DP (1)</text>
  <rect x="196" y="394" width="10" height="10" rx="2" fill="#7c3aed"/>
  <text x="210" y="404" font-family="SF Pro Display, system-ui" font-size="11" fill="#4a4a6a">Berkas (2)</text>
  <rect x="196" y="412" width="10" height="10" rx="2" fill="#059669"/>
  <text x="210" y="422" font-family="SF Pro Display, system-ui" font-size="11" fill="#4a4a6a">Selesai (2)</text>
  <rect x="196" y="430" width="10" height="10" rx="2" fill="#e11d48"/>
  <text x="210" y="440" font-family="SF Pro Display, system-ui" font-size="11" fill="#4a4a6a">Batal (1)</text>
  <!-- Progress bars -->
  <text x="22" y="506" font-family="SF Pro Display, system-ui" font-size="13" font-weight="700" fill="#0f0f1a">📊 Pipeline Progress</text>
  <!-- Booking -->
  <text x="22" y="528" font-family="SF Pro Display, system-ui" font-size="11" font-weight="600" fill="#0f0f1a">Booking</text>
  <text x="368" y="528" font-family="JetBrains Mono, monospace" font-size="10" fill="#9090b0" text-anchor="end">2 · 25%</text>
  <rect x="22" y="534" width="346" height="6" rx="3" fill="#eeeef6"/>
  <rect x="22" y="534" width="86" height="6" rx="3" fill="#4f46e5"/>
  <!-- DP -->
  <text x="22" y="556" font-family="SF Pro Display, system-ui" font-size="11" font-weight="600" fill="#0f0f1a">Proses DP</text>
  <text x="368" y="556" font-family="JetBrains Mono, monospace" font-size="10" fill="#9090b0" text-anchor="end">1 · 13%</text>
  <rect x="22" y="562" width="346" height="6" rx="3" fill="#eeeef6"/>
  <rect x="22" y="562" width="45" height="6" rx="3" fill="#d97706"/>
  <!-- Berkas -->
  <text x="22" y="584" font-family="SF Pro Display, system-ui" font-size="11" font-weight="600" fill="#0f0f1a">Kumpul Berkas</text>
  <text x="368" y="584" font-family="JetBrains Mono, monospace" font-size="10" fill="#9090b0" text-anchor="end">2 · 25%</text>
  <rect x="22" y="590" width="346" height="6" rx="3" fill="#eeeef6"/>
  <rect x="22" y="590" width="86" height="6" rx="3" fill="#7c3aed"/>
  <!-- Selesai -->
  <text x="22" y="612" font-family="SF Pro Display, system-ui" font-size="11" font-weight="600" fill="#0f0f1a">Selesai</text>
  <text x="368" y="612" font-family="JetBrains Mono, monospace" font-size="10" fill="#9090b0" text-anchor="end">2 · 25%</text>
  <rect x="22" y="618" width="346" height="6" rx="3" fill="#eeeef6"/>
  <rect x="22" y="618" width="86" height="6" rx="3" fill="#059669"/>
  <!-- Target card -->
  <rect x="18" y="640" width="354" height="78" rx="18" fill="url(#target-bg)" stroke="rgba(79,70,229,0.2)" stroke-width="1"/>
  <text x="34" y="665" font-family="SF Pro Display, system-ui" font-size="13" font-weight="700" fill="#0f0f1a">Akad Selesai</text>
  <text x="34" y="682" font-family="SF Pro Display, system-ui" font-size="11" fill="#9090b0">Target periode ini</text>
  <text x="350" y="668" font-family="JetBrains Mono, monospace" font-size="22" font-weight="800" letter-spacing="-1" fill="#4f46e5" text-anchor="end">2</text>
  <text x="368" y="668" font-family="JetBrains Mono, monospace" font-size="14" fill="#9090b0" text-anchor="end">/ 8</text>
  <rect x="34" y="692" width="310" height="8" rx="4" fill="#eeeef6"/>
  <rect x="34" y="692" width="78" height="8" rx="4" fill="url(#brand)"/>
  <text x="34" y="710" font-family="SF Pro Display, system-ui" font-size="11" fill="#9090b0">25% tercapai</text>
  <!-- Tab bar light -->
  <rect y="754" width="390" height="90" fill="rgba(245,245,250,0.96)"/>
  <rect y="754" width="390" height="1" fill="rgba(0,0,0,0.08)"/>
  <text x="39" y="785" font-family="serif" font-size="22" text-anchor="middle" fill="#b8b8cc">🏠</text>
  <text x="39" y="800" font-family="SF Pro Display, system-ui" font-size="10" font-weight="600" text-anchor="middle" fill="#b8b8cc">Dashboard</text>
  <text x="117" y="785" font-family="serif" font-size="22" text-anchor="middle" fill="#b8b8cc">👥</text>
  <text x="117" y="800" font-family="SF Pro Display, system-ui" font-size="10" font-weight="600" text-anchor="middle" fill="#b8b8cc">Konsumen</text>
  <text x="195" y="785" font-family="serif" font-size="22" text-anchor="middle" fill="#b8b8cc">📅</text>
  <text x="195" y="800" font-family="SF Pro Display, system-ui" font-size="10" font-weight="600" text-anchor="middle" fill="#b8b8cc">Kalender</text>
  <text x="273" y="785" font-family="serif" font-size="22" text-anchor="middle" fill="#4f46e5">📊</text>
  <text x="273" y="800" font-family="SF Pro Display, system-ui" font-size="10" font-weight="600" text-anchor="middle" fill="#4f46e5">Laporan</text>
  <text x="351" y="785" font-family="serif" font-size="22" text-anchor="middle" fill="#b8b8cc">⚙️</text>
  <text x="351" y="800" font-family="SF Pro Display, system-ui" font-size="10" font-weight="600" text-anchor="middle" fill="#b8b8cc">Pengaturan</text>
  <rect x="155" y="828" width="80" height="4" rx="2" fill="rgba(0,0,0,0.2)"/>
  <rect x="0" y="0" width="390" height="844" rx="44" fill="none" stroke="rgba(0,0,0,0.1)" stroke-width="1.5"/>
</g>
</svg>
