<svg xmlns="http://www.w3.org/2000/svg" viewBox="0 0 390 844" width="390" height="844">
<defs>
  <linearGradient id="brand" x1="0%" y1="0%" x2="100%" y2="100%"><stop offset="0%" stop-color="#6366f1"/><stop offset="100%" stop-color="#a855f7"/></linearGradient>
  <linearGradient id="av1" x1="0%" y1="0%" x2="100%" y2="100%"><stop offset="0%" stop-color="#a855f7"/><stop offset="100%" stop-color="#6d28d9"/></linearGradient>
  <clipPath id="phone"><rect x="0" y="0" width="390" height="844" rx="44"/></clipPath>
</defs>
<g clip-path="url(#phone)">
  <rect width="390" height="844" fill="#050508"/>
  <!-- Status bar -->
  <rect width="390" height="44" fill="#050508"/>
  <text x="28" y="29" font-family="SF Pro Display, system-ui" font-size="13" font-weight="600" fill="#f0f0f8">9:41</text>
  <!-- Modal overlay backdrop -->
  <rect width="390" height="844" fill="rgba(0,0,0,0.75)"/>
  <!-- Modal sheet -->
  <rect y="80" width="390" height="764" rx="0" fill="#111118"/>
  <rect y="80" width="390" height="764" rx="24" fill="#111118"/>
  <rect y="80" width="390" height="1" fill="rgba(255,255,255,0.14)"/>
  <!-- Pill -->
  <rect x="179" y="90" width="32" height="4" rx="2" fill="#1e1e28"/>
  <!-- Sheet header -->
  <text x="22" y="120" font-family="SF Pro Display, system-ui" font-size="16" font-weight="700" letter-spacing="-.4" fill="#f0f0f8">Detail Konsumen</text>
  <rect x="342" y="106" width="30" height="30" rx="8" fill="#18181f" stroke="rgba(255,255,255,0.08)" stroke-width="1"/>
  <text x="357" y="125" font-family="SF Pro Display, system-ui" font-size="13" text-anchor="middle" fill="#4a4a68">✕</text>
  <rect x="22" y="128" width="346" height="1" fill="rgba(255,255,255,0.08)"/>
  <!-- Det hero -->
  <rect y="129" width="390" height="100" fill="#0c0c12"/>
  <ellipse cx="340" cy="170" rx="120" ry="80" fill="rgba(99,102,241,0.1)"/>
  <rect x="22" y="146" width="60" height="60" rx="18" fill="url(#av1)"/>
  <text x="52" y="183" font-family="SF Pro Display, system-ui" font-size="22" font-weight="800" text-anchor="middle" fill="white">P</text>
  <text x="96" y="168" font-family="SF Pro Display, system-ui" font-size="19" font-weight="800" letter-spacing="-.8" fill="#f0f0f8">Putri Ayu</text>
  <text x="96" y="168" font-family="SF Pro Display, system-ui" font-size="19" font-weight="800" letter-spacing="-.8" fill="#f0f0f8">Putri Ayu Wulandari</text>
  <text x="96" y="186" font-family="SF Pro Display, system-ui" font-size="12" fill="#4a4a68">T54/120 · Kav. E-02</text>
  <rect x="96" y="196" width="82" height="18" rx="9" fill="rgba(168,85,247,0.12)"/>
  <text x="137" y="208" font-family="SF Pro Display, system-ui" font-size="9" font-weight="700" text-anchor="middle" fill="#a855f7">Kumpul Berkas</text>
  <text x="186" y="209" font-family="SF Pro Display, system-ui" font-size="10" fill="#f59e0b" font-weight="600">📅 20 Mar</text>
  <!-- Quick action buttons -->
  <rect x="22" y="236" width="80" height="52" rx="12" fill="#18181f" stroke="rgba(16,185,129,0.3)" stroke-width="1"/>
  <rect x="22" y="236" width="80" height="52" rx="12" fill="rgba(16,185,129,0.08)"/>
  <text x="62" y="258" font-family="serif" font-size="18" text-anchor="middle" fill="#10b981">📞</text>
  <text x="62" y="275" font-family="SF Pro Display, system-ui" font-size="11" font-weight="700" text-anchor="middle" fill="#10b981">Telepon</text>
  <rect x="110" y="236" width="80" height="52" rx="12" fill="#18181f" stroke="rgba(16,185,129,0.3)" stroke-width="1"/>
  <rect x="110" y="236" width="80" height="52" rx="12" fill="rgba(16,185,129,0.08)"/>
  <text x="150" y="258" font-family="serif" font-size="18" text-anchor="middle" fill="#10b981">💬</text>
  <text x="150" y="275" font-family="SF Pro Display, system-ui" font-size="11" font-weight="700" text-anchor="middle" fill="#10b981">WhatsApp</text>
  <rect x="198" y="236" width="80" height="52" rx="12" fill="#18181f" stroke="rgba(99,102,241,0.3)" stroke-width="1"/>
  <rect x="198" y="236" width="80" height="52" rx="12" fill="rgba(99,102,241,0.08)"/>
  <text x="238" y="258" font-family="serif" font-size="18" text-anchor="middle" fill="#818cf8">✏️</text>
  <text x="238" y="275" font-family="SF Pro Display, system-ui" font-size="11" font-weight="700" text-anchor="middle" fill="#818cf8">Edit</text>
  <rect x="286" y="236" width="80" height="52" rx="12" fill="#18181f" stroke="rgba(245,158,11,0.3)" stroke-width="1"/>
  <rect x="286" y="236" width="80" height="52" rx="12" fill="rgba(245,158,11,0.08)"/>
  <text x="326" y="258" font-family="serif" font-size="18" text-anchor="middle" fill="#f59e0b">📝</text>
  <text x="326" y="275" font-family="SF Pro Display, system-ui" font-size="11" font-weight="700" text-anchor="middle" fill="#f59e0b">Catat</text>
  <!-- Info section -->
  <text x="22" y="315" font-family="SF Pro Display, system-ui" font-size="9" font-weight="700" fill="#2e2e42" letter-spacing="1.2" text-transform="uppercase">INFORMASI</text>
  <rect x="22" y="320" width="346" height="1" fill="rgba(255,255,255,0.06)"/>
  <text x="22" y="342" font-family="SF Pro Display, system-ui" font-size="12" fill="#4a4a68">Harga Unit</text>
  <text x="368" y="342" font-family="SF Pro Display, system-ui" font-size="12" font-weight="700" fill="#818cf8" text-anchor="end">Rp 720.000.000</text>
  <rect x="22" y="350" width="346" height="1" fill="rgba(255,255,255,0.04)"/>
  <text x="22" y="370" font-family="SF Pro Display, system-ui" font-size="12" fill="#4a4a68">Jumlah DP</text>
  <text x="368" y="370" font-family="SF Pro Display, system-ui" font-size="12" font-weight="700" fill="#f0f0f8" text-anchor="end">Rp 72.000.000</text>
  <rect x="22" y="378" width="346" height="1" fill="rgba(255,255,255,0.04)"/>
  <text x="22" y="398" font-family="SF Pro Display, system-ui" font-size="12" fill="#4a4a68">Pembiayaan</text>
  <text x="368" y="398" font-family="SF Pro Display, system-ui" font-size="12" font-weight="700" fill="#f0f0f8" text-anchor="end">Cash Bertahap</text>
  <rect x="22" y="406" width="346" height="1" fill="rgba(255,255,255,0.04)"/>
  <text x="22" y="426" font-family="SF Pro Display, system-ui" font-size="12" fill="#4a4a68">Sumber</text>
  <text x="368" y="426" font-family="SF Pro Display, system-ui" font-size="12" font-weight="700" fill="#f0f0f8" text-anchor="end">Referral</text>
  <!-- Berkas section -->
  <text x="22" y="460" font-family="SF Pro Display, system-ui" font-size="9" font-weight="700" fill="#2e2e42" letter-spacing="1.2">CHECKLIST BERKAS &amp; DOKUMEN</text>
  <rect x="22" y="465" width="346" height="1" fill="rgba(255,255,255,0.06)"/>
  <!-- Berkas items -->
  <rect x="30" y="480" width="22" height="22" rx="7" fill="#10b981" stroke="#10b981" stroke-width="2"/>
  <text x="41" y="495" font-family="SF Pro Display, system-ui" font-size="12" font-weight="700" text-anchor="middle" fill="white">✓</text>
  <text x="62" y="495" font-family="SF Pro Display, system-ui" font-size="12" fill="#4a4a68" text-decoration="line-through">KTP / e-KTP</text>
  <rect x="30" y="510" width="22" height="22" rx="7" fill="#10b981" stroke="#10b981" stroke-width="2"/>
  <text x="41" y="525" font-family="SF Pro Display, system-ui" font-size="12" font-weight="700" text-anchor="middle" fill="white">✓</text>
  <text x="62" y="525" font-family="SF Pro Display, system-ui" font-size="12" fill="#4a4a68" text-decoration="line-through">Kartu Keluarga</text>
  <rect x="30" y="540" width="22" height="22" rx="7" fill="#10b981" stroke="#10b981" stroke-width="2"/>
  <text x="41" y="555" font-family="SF Pro Display, system-ui" font-size="12" font-weight="700" text-anchor="middle" fill="white">✓</text>
  <text x="62" y="555" font-family="SF Pro Display, system-ui" font-size="12" fill="#4a4a68" text-decoration="line-through">Slip Gaji / SK Kerja</text>
  <!-- thumbnail strip -->
  <rect x="62" y="562" width="54" height="48" rx="10" fill="#18181f" stroke="rgba(255,255,255,0.08)" stroke-width="1.5"/>
  <text x="89" y="590" font-family="serif" font-size="22" text-anchor="middle" fill="#4a4a68">🖼</text>
  <rect x="124" y="562" width="54" height="48" rx="10" fill="#18181f" stroke="rgba(255,255,255,0.08)" stroke-width="1.5"/>
  <text x="151" y="590" font-family="serif" font-size="22" text-anchor="middle" fill="#4a4a68">📄</text>
  <rect x="30" y="618" width="22" height="22" rx="7" fill="none" stroke="#1e1e28" stroke-width="2"/>
  <text x="62" y="633" font-family="SF Pro Display, system-ui" font-size="12" fill="#f0f0f8">Rekening Tabungan 3 Bln</text>
  <rect x="30" y="648" width="22" height="22" rx="7" fill="none" stroke="#1e1e28" stroke-width="2"/>
  <text x="62" y="663" font-family="SF Pro Display, system-ui" font-size="12" fill="#f0f0f8">NPWP</text>
  <!-- Add berkas button -->
  <rect x="22" y="682" width="346" height="36" rx="12" fill="transparent" stroke="rgba(255,255,255,0.08)" stroke-dasharray="5,3"/>
  <text x="195" y="704" font-family="SF Pro Display, system-ui" font-size="12" font-weight="700" text-anchor="middle" fill="#4a4a68">＋ Tambah Item Berkas</text>
  <!-- Home indicator -->
  <rect x="155" y="828" width="80" height="4" rx="2" fill="rgba(255,255,255,0.25)"/>
  <rect x="0" y="0" width="390" height="844" rx="44" fill="none" stroke="rgba(255,255,255,0.1)" stroke-width="1.5"/>
</g>
</svg>
