<svg xmlns="http://www.w3.org/2000/svg" viewBox="0 0 390 844" width="390" height="844">
<defs>
  <linearGradient id="brand" x1="0%" y1="0%" x2="100%" y2="100%"><stop offset="0%" stop-color="#6366f1"/><stop offset="100%" stop-color="#a855f7"/></linearGradient>
  <clipPath id="phone"><rect x="0" y="0" width="390" height="844" rx="44"/></clipPath>
</defs>
<g clip-path="url(#phone)">
  <rect width="390" height="844" fill="#050508"/>
  <!-- Status bar -->
  <rect width="390" height="44" fill="#050508"/>
  <text x="28" y="29" font-family="SF Pro Display, system-ui" font-size="13" font-weight="600" fill="#f0f0f8">9:41</text>
  <rect x="310" y="18" width="42" height="13" rx="3" fill="none" stroke="#f0f0f8" stroke-width="1.2" stroke-opacity=".6"/>
  <rect x="312" y="20" width="32" height="9" rx="1.5" fill="#10b981"/>
  <!-- Header -->
  <rect y="44" width="390" height="56" fill="rgba(5,5,8,0.88)"/>
  <rect y="99" width="390" height="1" fill="rgba(255,255,255,0.08)"/>
  <rect x="18" y="60" width="34" height="34" rx="10" fill="url(#brand)"/>
  <text x="35" y="82" font-family="serif" font-size="18" text-anchor="middle" fill="white">🎯</text>
  <text x="60" y="76" font-family="SF Pro Display, system-ui" font-size="17" font-weight="800" letter-spacing="-1" fill="#f0f0f8">Market<tspan fill="#818cf8">Pro</tspan></text>
  <rect x="200" y="62" width="108" height="28" rx="14" fill="rgba(255,255,255,0.05)" stroke="rgba(255,255,255,0.08)" stroke-width="1"/>
  <circle cx="214" cy="76" r="10" fill="url(#brand)"/>
  <text x="214" y="80" font-family="SF Pro Display, system-ui" font-size="10" font-weight="800" text-anchor="middle" fill="white">A</text>
  <text x="228" y="80" font-family="SF Pro Display, system-ui" font-size="11" font-weight="600" fill="#f0f0f8">Admin</text>
  <rect x="316" y="62" width="40" height="28" rx="10" fill="rgba(255,255,255,0.05)" stroke="rgba(255,255,255,0.08)" stroke-width="1"/>
  <text x="336" y="80" font-family="serif" font-size="15" text-anchor="middle" fill="#9898b8">🌙</text>
  <!-- Search -->
  <rect y="100" width="390" height="54" fill="rgba(5,5,8,0.87)"/>
  <rect x="18" y="110" width="354" height="38" rx="12" fill="#18181f" stroke="rgba(255,255,255,0.08)" stroke-width="1.5"/>
  <text x="36" y="133" font-family="serif" font-size="14" fill="#4a4a68">🔍</text>
  <text x="58" y="134" font-family="SF Pro Display, system-ui" font-size="13" fill="#2e2e42">Cari nama, HP, unit, kavling...</text>
  <!-- Filter chips -->
  <rect y="154" width="390" height="44" fill="#050508"/>
  <rect x="18" y="162" width="48" height="24" rx="12" fill="rgba(99,102,241,0.12)" stroke="rgba(99,102,241,0.4)" stroke-width="1.5"/>
  <text x="42" y="178" font-family="SF Pro Display, system-ui" font-size="10" font-weight="700" text-anchor="middle" fill="#818cf8">Semua</text>
  <rect x="74" y="162" width="70" height="24" rx="12" fill="transparent" stroke="rgba(255,255,255,0.08)" stroke-width="1.5"/>
  <text x="109" y="178" font-family="SF Pro Display, system-ui" font-size="10" font-weight="700" text-anchor="middle" fill="#4a4a68">📋 Booking</text>
  <rect x="152" y="162" width="72" height="24" rx="12" fill="transparent" stroke="rgba(255,255,255,0.08)" stroke-width="1.5"/>
  <text x="188" y="178" font-family="SF Pro Display, system-ui" font-size="10" font-weight="700" text-anchor="middle" fill="#4a4a68">💰 Proses DP</text>
  <rect x="232" y="162" width="58" height="24" rx="12" fill="transparent" stroke="rgba(255,255,255,0.08)" stroke-width="1.5"/>
  <text x="261" y="178" font-family="SF Pro Display, system-ui" font-size="10" font-weight="700" text-anchor="middle" fill="#4a4a68">📁 Berkas</text>
  <rect x="298" y="162" width="36" height="24" rx="12" fill="transparent" stroke="rgba(255,255,255,0.08)" stroke-width="1.5"/>
  <text x="316" y="178" font-family="SF Pro Display, system-ui" font-size="9" font-weight="700" text-anchor="middle" fill="#4a4a68">A→Z</text>
  <!-- Konsumen cards -->
  <!-- Card 1 - Booking -->
  <rect x="18" y="208" width="354" height="86" rx="18" fill="#111118" stroke="rgba(255,255,255,0.08)" stroke-width="1"/>
  <rect x="18" y="218" width="3" height="44" rx="1.5" fill="#6366f1"/>
  <!-- subtle bg tint -->
  <rect x="18" y="208" width="354" height="86" rx="18" fill="rgba(99,102,241,0.04)"/>
  <text x="30" y="233" font-family="SF Pro Display, system-ui" font-size="14" font-weight="700" letter-spacing="-.3" fill="#f0f0f8">Budi Santoso</text>
  <text x="30" y="251" font-family="SF Pro Display, system-ui" font-size="11" fill="#4a4a68">T36/72 · Kav. A-05</text>
  <rect x="290" y="214" width="52" height="18" rx="9" fill="rgba(99,102,241,0.12)"/>
  <text x="316" y="226" font-family="SF Pro Display, system-ui" font-size="9" font-weight="700" text-anchor="middle" fill="#818cf8">Booking</text>
  <text x="290" y="250" font-family="SF Pro Display, system-ui" font-size="9" font-weight="700" fill="#f59e0b">📅 25 Mar</text>
  <rect x="30" y="260" width="310" height="28" rx="8" fill="rgba(255,255,255,0.04)"/>
  <text x="44" y="278" font-family="SF Pro Display, system-ui" font-size="10" fill="#4a4a68">📞 081234567890</text>
  <text x="165" y="278" font-family="SF Pro Display, system-ui" font-size="10" fill="#4a4a68">💰 Rp 350.000.000</text>
  <text x="300" y="278" font-family="SF Pro Display, system-ui" font-size="10" fill="#4a4a68">📁 1/2</text>
  <!-- Card 2 - DP -->
  <rect x="18" y="304" width="354" height="86" rx="18" fill="#111118" stroke="rgba(255,255,255,0.08)" stroke-width="1"/>
  <rect x="18" y="314" width="3" height="44" rx="1.5" fill="#f59e0b"/>
  <text x="30" y="329" font-family="SF Pro Display, system-ui" font-size="14" font-weight="700" letter-spacing="-.3" fill="#f0f0f8">Siti Rahma</text>
  <text x="30" y="347" font-family="SF Pro Display, system-ui" font-size="11" fill="#4a4a68">T45/90 · Kav. B-12</text>
  <rect x="278" y="314" width="64" height="18" rx="9" fill="rgba(245,158,11,0.12)"/>
  <text x="310" y="326" font-family="SF Pro Display, system-ui" font-size="9" font-weight="700" text-anchor="middle" fill="#f59e0b">Proses DP</text>
  <rect x="30" y="358" width="310" height="28" rx="8" fill="rgba(255,255,255,0.04)"/>
  <text x="44" y="376" font-family="SF Pro Display, system-ui" font-size="10" fill="#4a4a68">📞 082198765432</text>
  <text x="165" y="376" font-family="SF Pro Display, system-ui" font-size="10" fill="#4a4a68">💰 Rp 450.000.000</text>
  <text x="300" y="376" font-family="SF Pro Display, system-ui" font-size="10" fill="#4a4a68">📁 3/3</text>
  <!-- Card 3 - Berkas -->
  <rect x="18" y="400" width="354" height="86" rx="18" fill="#111118" stroke="rgba(255,255,255,0.08)" stroke-width="1"/>
  <rect x="18" y="410" width="3" height="44" rx="1.5" fill="#a855f7"/>
  <text x="30" y="425" font-family="SF Pro Display, system-ui" font-size="14" font-weight="700" letter-spacing="-.3" fill="#f0f0f8">Andi Firmansyah</text>
  <text x="30" y="443" font-family="SF Pro Display, system-ui" font-size="11" fill="#4a4a68">T36/60 · Kav. C-08</text>
  <rect x="260" y="410" width="82" height="18" rx="9" fill="rgba(168,85,247,0.12)"/>
  <text x="301" y="422" font-family="SF Pro Display, system-ui" font-size="9" font-weight="700" text-anchor="middle" fill="#a855f7">Kumpul Berkas</text>
  <rect x="30" y="454" width="310" height="28" rx="8" fill="rgba(255,255,255,0.04)"/>
  <text x="44" y="472" font-family="SF Pro Display, system-ui" font-size="10" fill="#4a4a68">📞 085678901234</text>
  <text x="165" y="472" font-family="SF Pro Display, system-ui" font-size="10" fill="#4a4a68">💰 Rp 280.000.000</text>
  <text x="300" y="472" font-family="SF Pro Display, system-ui" font-size="10" fill="#4a4a68">📁 5/6</text>
  <!-- Card 4 - Selesai -->
  <rect x="18" y="496" width="354" height="86" rx="18" fill="rgba(16,185,129,0.04)" stroke="rgba(255,255,255,0.08)" stroke-width="1"/>
  <rect x="18" y="506" width="3" height="44" rx="1.5" fill="#10b981"/>
  <text x="30" y="521" font-family="SF Pro Display, system-ui" font-size="14" font-weight="700" letter-spacing="-.3" fill="#f0f0f8">Dewi Lestari</text>
  <text x="30" y="539" font-family="SF Pro Display, system-ui" font-size="11" fill="#4a4a68">T54/120 · Kav. D-03</text>
  <rect x="285" y="506" width="57" height="18" rx="9" fill="rgba(16,185,129,0.12)"/>
  <text x="313" y="518" font-family="SF Pro Display, system-ui" font-size="9" font-weight="700" text-anchor="middle" fill="#10b981">Selesai</text>
  <rect x="30" y="550" width="310" height="28" rx="8" fill="rgba(255,255,255,0.04)"/>
  <text x="44" y="568" font-family="SF Pro Display, system-ui" font-size="10" fill="#4a4a68">📞 087712345678</text>
  <text x="165" y="568" font-family="SF Pro Display, system-ui" font-size="10" fill="#4a4a68">💰 Rp 650.000.000</text>
  <text x="300" y="568" font-family="SF Pro Display, system-ui" font-size="10" fill="#4a4a68">📁 2/2</text>
  <!-- FAB -->
  <rect x="314" y="662" width="56" height="56" rx="18" fill="url(#brand)"/>
  <text x="342" y="696" font-family="SF Pro Display, system-ui" font-size="28" text-anchor="middle" fill="white">＋</text>
  <!-- Tab bar -->
  <rect y="754" width="390" height="90" fill="rgba(5,5,8,0.94)"/>
  <rect y="754" width="390" height="1" fill="rgba(255,255,255,0.08)"/>
  <text x="39" y="785" font-family="serif" font-size="22" text-anchor="middle" fill="#2e2e42">🏠</text>
  <text x="39" y="800" font-family="SF Pro Display, system-ui" font-size="10" font-weight="600" text-anchor="middle" fill="#2e2e42">Dashboard</text>
  <text x="117" y="785" font-family="serif" font-size="22" text-anchor="middle" fill="#818cf8">👥</text>
  <text x="117" y="800" font-family="SF Pro Display, system-ui" font-size="10" font-weight="600" text-anchor="middle" fill="#818cf8">Konsumen</text>
  <text x="195" y="785" font-family="serif" font-size="22" text-anchor="middle" fill="#2e2e42">📅</text>
  <text x="195" y="800" font-family="SF Pro Display, system-ui" font-size="10" font-weight="600" text-anchor="middle" fill="#2e2e42">Kalender</text>
  <text x="273" y="785" font-family="serif" font-size="22" text-anchor="middle" fill="#2e2e42">📊</text>
  <text x="273" y="800" font-family="SF Pro Display, system-ui" font-size="10" font-weight="600" text-anchor="middle" fill="#2e2e42">Laporan</text>
  <text x="351" y="785" font-family="serif" font-size="22" text-anchor="middle" fill="#2e2e42">⚙️</text>
  <text x="351" y="800" font-family="SF Pro Display, system-ui" font-size="10" font-weight="600" text-anchor="middle" fill="#2e2e42">Pengaturan</text>
  <rect x="155" y="828" width="80" height="4" rx="2" fill="rgba(255,255,255,0.25)"/>
  <rect x="0" y="0" width="390" height="844" rx="44" fill="none" stroke="rgba(255,255,255,0.1)" stroke-width="1.5"/>
</g>
</svg>
