<svg xmlns="http://www.w3.org/2000/svg" viewBox="0 0 390 844" width="390" height="844">
<defs>
  <linearGradient id="brand" x1="0%" y1="0%" x2="100%" y2="100%"><stop offset="0%" stop-color="#6366f1"/><stop offset="100%" stop-color="#a855f7"/></linearGradient>
  <clipPath id="phone"><rect x="0" y="0" width="390" height="844" rx="44"/></clipPath>
</defs>
<g clip-path="url(#phone)">
  <rect width="390" height="844" fill="#050508"/>
  <rect width="390" height="44" fill="#050508"/>
  <text x="28" y="29" font-family="SF Pro Display, system-ui" font-size="13" font-weight="600" fill="#f0f0f8">9:41</text>
  <rect x="310" y="18" width="42" height="13" rx="3" fill="none" stroke="#f0f0f8" stroke-width="1.2" stroke-opacity=".6"/>
  <rect x="312" y="20" width="32" height="9" rx="1.5" fill="#10b981"/>
  <!-- Header -->
  <rect y="44" width="390" height="56" fill="rgba(5,5,8,0.94)"/>
  <rect y="99" width="390" height="1" fill="rgba(255,255,255,0.08)"/>
  <rect x="16" y="60" width="30" height="30" rx="8" fill="#6366f1"/>
  <path d="M31 66L23 72.5V80H27.5V75H34.5V80H39V72.5Z" fill="white" opacity="0.9"/>
  <circle cx="36.5" cy="68" r="3.5" fill="#6366f1"/>
  <circle cx="36.5" cy="68" r="2.2" fill="white"/>
  <circle cx="36.5" cy="68" r="0.9" fill="#6366f1"/>
  <text x="54" y="76" font-family="SF Pro Display, system-ui" font-size="17" font-weight="800" letter-spacing="-1" fill="#f0f0f8">Prop<tspan fill="#818cf8">Map</tspan></text>
  <rect x="198" y="62" width="108" height="28" rx="14" fill="rgba(255,255,255,0.05)" stroke="rgba(255,255,255,0.08)" stroke-width="1"/>
  <circle cx="212" cy="76" r="10" fill="url(#brand)"/>
  <text x="212" y="80" font-family="SF Pro Display, system-ui" font-size="10" font-weight="800" text-anchor="middle" fill="white">M</text>
  <text x="226" y="80" font-family="SF Pro Display, system-ui" font-size="11" font-weight="600" fill="#f0f0f8">Marketing</text>
  <rect x="314" y="62" width="30" height="28" rx="9" fill="rgba(255,255,255,0.05)" stroke="rgba(255,255,255,0.08)" stroke-width="1"/>
  <text x="329" y="80" font-family="serif" font-size="14" text-anchor="middle" fill="#9898b8">☀️</text>
  <rect x="350" y="62" width="30" height="28" rx="9" fill="rgba(255,255,255,0.05)" stroke="rgba(255,255,255,0.08)" stroke-width="1"/>
  <text x="365" y="80" font-family="serif" font-size="14" text-anchor="middle" fill="#9898b8">🔔</text>
  <!-- Search -->
  <rect y="100" width="390" height="54" fill="rgba(5,5,8,0.9)"/>
  <rect x="18" y="110" width="354" height="36" rx="11" fill="#18181f" stroke="rgba(255,255,255,0.08)" stroke-width="1.5"/>
  <text x="36" y="131" font-family="serif" font-size="14" fill="#4a4a68">🔍</text>
  <text x="56" y="132" font-family="SF Pro Display, system-ui" font-size="12" fill="#2e2e42">Cari nama, HP, unit, kavling...</text>
  <rect x="346" y="116" width="22" height="24" rx="7" fill="rgba(99,102,241,0.1)" stroke="rgba(99,102,241,0.25)" stroke-width="1"/>
  <text x="357" y="132" font-family="SF Pro Display, system-ui" font-size="9" font-weight="700" text-anchor="middle" fill="#818cf8">⚙</text>
  <!-- Filter chips -->
  <rect y="154" width="390" height="40" fill="#050508"/>
  <rect x="14" y="161" width="48" height="22" rx="11" fill="rgba(99,102,241,0.12)" stroke="rgba(99,102,241,0.4)" stroke-width="1.5"/>
  <text x="38" y="176" font-family="SF Pro Display, system-ui" font-size="9" font-weight="700" text-anchor="middle" fill="#818cf8">Semua</text>
  <rect x="68" y="161" width="62" height="22" rx="11" fill="transparent" stroke="rgba(255,255,255,0.08)" stroke-width="1"/>
  <text x="99" y="176" font-family="SF Pro Display, system-ui" font-size="9" text-anchor="middle" fill="#4a4a68">📍 Prospek</text>
  <rect x="136" y="161" width="66" height="22" rx="11" fill="transparent" stroke="rgba(255,255,255,0.08)" stroke-width="1"/>
  <text x="169" y="176" font-family="SF Pro Display, system-ui" font-size="9" text-anchor="middle" fill="#4a4a68">📋 Booking</text>
  <rect x="208" y="161" width="72" height="22" rx="11" fill="transparent" stroke="rgba(255,255,255,0.08)" stroke-width="1"/>
  <text x="244" y="176" font-family="SF Pro Display, system-ui" font-size="9" text-anchor="middle" fill="#4a4a68">💰 Proses DP</text>
  <rect x="286" y="161" width="58" height="22" rx="11" fill="transparent" stroke="rgba(255,255,255,0.08)" stroke-width="1"/>
  <text x="315" y="176" font-family="SF Pro Display, system-ui" font-size="9" text-anchor="middle" fill="#4a4a68">🏦 SP3K</text>
  <!-- Cards -->
  <!-- Prospek -->
  <rect x="16" y="202" width="358" height="80" rx="16" fill="#0d0d14" stroke="rgba(255,255,255,0.07)" stroke-width="1"/>
  <rect x="16" y="212" width="3" height="36" rx="1.5" fill="#0ea5e9"/>
  <rect x="16" y="202" width="358" height="80" rx="16" fill="rgba(14,165,233,0.03)"/>
  <text x="28" y="226" font-family="SF Pro Display, system-ui" font-size="13" font-weight="700" fill="#f0f0f8">Muhammad Teguh</text>
  <text x="28" y="242" font-family="SF Pro Display, system-ui" font-size="10" fill="#4a4a68">— · Kav. —</text>
  <rect x="278" y="208" width="80" height="16" rx="8" fill="rgba(14,165,233,0.12)"/>
  <text x="318" y="219" font-family="SF Pro Display, system-ui" font-size="8" font-weight="700" text-anchor="middle" fill="#0ea5e9">Prospek Konsumen</text>
  <rect x="28" y="252" width="318" height="22" rx="6" fill="rgba(255,255,255,0.04)"/>
  <text x="40" y="267" font-family="SF Pro Display, system-ui" font-size="9" fill="#4a4a68">📞 081234567890</text>
  <text x="165" y="267" font-family="SF Pro Display, system-ui" font-size="9" fill="#4a4a68">💰 Rp 0</text>
  <text x="300" y="267" font-family="SF Pro Display, system-ui" font-size="9" fill="#4a4a68">📁 0/0</text>
  <!-- Booking -->
  <rect x="16" y="292" width="358" height="80" rx="16" fill="#0d0d14" stroke="rgba(255,255,255,0.07)" stroke-width="1"/>
  <rect x="16" y="302" width="3" height="36" rx="1.5" fill="#6366f1"/>
  <rect x="16" y="292" width="358" height="80" rx="16" fill="rgba(99,102,241,0.04)"/>
  <text x="28" y="316" font-family="SF Pro Display, system-ui" font-size="13" font-weight="700" fill="#f0f0f8">Budi Santoso</text>
  <text x="28" y="332" font-family="SF Pro Display, system-ui" font-size="10" fill="#4a4a68">T36/72 · Kav. A-05</text>
  <rect x="290" y="298" width="56" height="16" rx="8" fill="rgba(99,102,241,0.12)"/>
  <text x="318" y="309" font-family="SF Pro Display, system-ui" font-size="8" font-weight="700" text-anchor="middle" fill="#818cf8">Booking</text>
  <text x="290" y="332" font-family="SF Pro Display, system-ui" font-size="8" font-weight="700" fill="#f59e0b">📅 25 Mar</text>
  <rect x="28" y="342" width="318" height="22" rx="6" fill="rgba(255,255,255,0.04)"/>
  <text x="40" y="357" font-family="SF Pro Display, system-ui" font-size="9" fill="#4a4a68">📞 081234567890</text>
  <text x="165" y="357" font-family="SF Pro Display, system-ui" font-size="9" fill="#4a4a68">💰 Rp 350jt</text>
  <text x="300" y="357" font-family="SF Pro Display, system-ui" font-size="9" fill="#4a4a68">📁 1/3</text>
  <!-- Proses DP -->
  <rect x="16" y="382" width="358" height="80" rx="16" fill="#0d0d14" stroke="rgba(255,255,255,0.07)" stroke-width="1"/>
  <rect x="16" y="392" width="3" height="36" rx="1.5" fill="#f59e0b"/>
  <text x="28" y="406" font-family="SF Pro Display, system-ui" font-size="13" font-weight="700" fill="#f0f0f8">Siti Rahma</text>
  <text x="28" y="422" font-family="SF Pro Display, system-ui" font-size="10" fill="#4a4a68">T45/90 · Kav. B-12</text>
  <rect x="278" y="388" width="68" height="16" rx="8" fill="rgba(245,158,11,0.12)"/>
  <text x="312" y="399" font-family="SF Pro Display, system-ui" font-size="8" font-weight="700" text-anchor="middle" fill="#f59e0b">Proses DP</text>
  <rect x="28" y="432" width="318" height="22" rx="6" fill="rgba(255,255,255,0.04)"/>
  <text x="40" y="447" font-family="SF Pro Display, system-ui" font-size="9" fill="#4a4a68">📞 082198765432</text>
  <text x="165" y="447" font-family="SF Pro Display, system-ui" font-size="9" fill="#4a4a68">💰 Rp 450jt</text>
  <text x="300" y="447" font-family="SF Pro Display, system-ui" font-size="9" fill="#4a4a68">📁 3/3</text>
  <!-- SP3K/ACC -->
  <rect x="16" y="472" width="358" height="80" rx="16" fill="#0d0d14" stroke="rgba(255,255,255,0.07)" stroke-width="1"/>
  <rect x="16" y="482" width="3" height="36" rx="1.5" fill="#ec4899"/>
  <text x="28" y="496" font-family="SF Pro Display, system-ui" font-size="13" font-weight="700" fill="#f0f0f8">Rica Rosani</text>
  <text x="28" y="512" font-family="SF Pro Display, system-ui" font-size="10" fill="#4a4a68">J41-E · Kav. J-05</text>
  <rect x="276" y="478" width="72" height="16" rx="8" fill="rgba(236,72,153,0.12)"/>
  <text x="312" y="489" font-family="SF Pro Display, system-ui" font-size="8" font-weight="700" text-anchor="middle" fill="#ec4899">SP3K/ACC</text>
  <rect x="28" y="522" width="318" height="22" rx="6" fill="rgba(255,255,255,0.04)"/>
  <text x="40" y="537" font-family="SF Pro Display, system-ui" font-size="9" fill="#4a4a68">📞 087712345678</text>
  <text x="165" y="537" font-family="SF Pro Display, system-ui" font-size="9" fill="#4a4a68">💰 Rp 580jt</text>
  <text x="300" y="537" font-family="SF Pro Display, system-ui" font-size="9" fill="#4a4a68">📁 6/6</text>
  <!-- Selesai -->
  <rect x="16" y="562" width="358" height="80" rx="16" fill="rgba(16,185,129,0.04)" stroke="rgba(255,255,255,0.07)" stroke-width="1"/>
  <rect x="16" y="572" width="3" height="36" rx="1.5" fill="#10b981"/>
  <text x="28" y="586" font-family="SF Pro Display, system-ui" font-size="13" font-weight="700" fill="#f0f0f8">Dewi Lestari</text>
  <text x="28" y="602" font-family="SF Pro Display, system-ui" font-size="10" fill="#4a4a68">T54/120 · Kav. D-03</text>
  <rect x="285" y="568" width="56" height="16" rx="8" fill="rgba(16,185,129,0.12)"/>
  <text x="313" y="579" font-family="SF Pro Display, system-ui" font-size="8" font-weight="700" text-anchor="middle" fill="#10b981">Selesai</text>
  <rect x="28" y="612" width="318" height="22" rx="6" fill="rgba(255,255,255,0.04)"/>
  <text x="40" y="627" font-family="SF Pro Display, system-ui" font-size="9" fill="#4a4a68">📞 087712345678</text>
  <text x="165" y="627" font-family="SF Pro Display, system-ui" font-size="9" fill="#4a4a68">💰 Rp 650jt</text>
  <text x="300" y="627" font-family="SF Pro Display, system-ui" font-size="9" fill="#4a4a68">📁 2/2</text>
  <!-- FAB -->
  <rect x="314" y="665" width="56" height="56" rx="18" fill="url(#brand)"/>
  <text x="342" y="699" font-family="SF Pro Display, system-ui" font-size="28" text-anchor="middle" fill="white">＋</text>
  <!-- Tab bar -->
  <rect y="754" width="390" height="90" fill="rgba(5,5,8,0.96)"/>
  <rect y="754" width="390" height="1" fill="rgba(255,255,255,0.08)"/>
  <text x="39" y="785" font-family="serif" font-size="22" text-anchor="middle" fill="#2e2e42">🏠</text>
  <text x="39" y="800" font-family="SF Pro Display, system-ui" font-size="10" font-weight="600" text-anchor="middle" fill="#2e2e42">Dashboard</text>
  <text x="117" y="785" font-family="serif" font-size="22" text-anchor="middle" fill="#818cf8">👥</text>
  <text x="117" y="800" font-family="SF Pro Display, system-ui" font-size="10" font-weight="600" text-anchor="middle" fill="#818cf8">Konsumen</text>
  <text x="195" y="785" font-family="serif" font-size="22" text-anchor="middle" fill="#2e2e42">📅</text>
  <text x="195" y="800" font-family="SF Pro Display, system-ui" font-size="10" font-weight="600" text-anchor="middle" fill="#2e2e42">Kalender</text>
  <text x="273" y="785" font-family="serif" font-size="22" text-anchor="middle" fill="#2e2e42">📊</text>
  <text x="273" y="800" font-family="SF Pro Display, system-ui" font-size="10" font-weight="600" text-anchor="middle" fill="#2e2e42">Laporan</text>
  <text x="351" y="785" font-family="serif" font-size="22" text-anchor="middle" fill="#2e2e42">⚙️</text>
  <text x="351" y="800" font-family="SF Pro Display, system-ui" font-size="10" font-weight="600" text-anchor="middle" fill="#2e2e42">Pengaturan</text>
  <rect x="155" y="828" width="80" height="4" rx="2" fill="rgba(255,255,255,0.2)"/>
  <rect x="0" y="0" width="390" height="844" rx="44" fill="none" stroke="rgba(255,255,255,0.09)" stroke-width="1.5"/>
</g>
</svg>
