<svg xmlns="http://www.w3.org/2000/svg" viewBox="0 0 390 844" width="390" height="844">
  <defs>
    <linearGradient id="heroBg" x1="0" y1="0" x2="1" y2="1"><stop offset="0%" stop-color="#1a2060"/><stop offset="100%" stop-color="#050508"/></linearGradient>
    <linearGradient id="brandGrad" x1="0" y1="0" x2="1" y2="1"><stop offset="0%" stop-color="#6366f1"/><stop offset="100%" stop-color="#a855f7"/></linearGradient>
    <filter id="orb"><feGaussianBlur stdDeviation="40"/></filter>
  </defs>
  <!-- bg -->
  <rect width="390" height="844" fill="#050508"/>
  <!-- ambient orbs -->
  <ellipse cx="50" cy="300" rx="180" ry="180" fill="rgba(99,102,241,0.13)" filter="url(#orb)"/>
  <ellipse cx="360" cy="180" rx="130" ry="130" fill="rgba(168,85,247,0.08)" filter="url(#orb)"/>

  <!-- STATUS BAR -->
  <rect x="0" y="0" width="390" height="50" fill="rgba(5,5,8,0.9)"/>
  <text x="24" y="33" font-family="system-ui,sans-serif" font-size="15" font-weight="600" fill="#f0f0f8">9:41</text>
  <rect x="328" y="21" width="28" height="13" rx="3.5" fill="none" stroke="rgba(240,240,248,0.7)" stroke-width="1.5"/>
  <rect x="356" y="25" width="3" height="5" rx="1" fill="rgba(240,240,248,0.7)"/>
  <rect x="330" y="23" width="22" height="9" rx="2" fill="#34d399"/>
  <rect x="308" y="21" width="3" height="13" rx="1.5" fill="rgba(240,240,248,0.55)"/>
  <rect x="303" y="24" width="3" height="10" rx="1.5" fill="rgba(240,240,248,0.45)"/>
  <rect x="298" y="27" width="3" height="7" rx="1.5" fill="rgba(240,240,248,0.35)"/>

  <!-- HEADER -->
  <rect x="0" y="50" width="390" height="58" fill="rgba(8,8,14,0.88)"/>
  <rect x="0" y="107" width="390" height="1" fill="rgba(255,255,255,0.08)"/>
  <rect x="20" y="62" width="34" height="34" rx="10" fill="url(#brandGrad)"/>
  <text x="37" y="84" font-size="17" text-anchor="middle">🎯</text>
  <text x="62" y="82" font-family="system-ui,sans-serif" font-size="17" font-weight="800" fill="#f0f0f8">Market</text>
  <text x="120" y="82" font-family="system-ui,sans-serif" font-size="17" font-weight="800" fill="#818cf8">Pro</text>
  <!-- user pill -->
  <rect x="194" y="65" width="110" height="28" rx="14" fill="rgba(255,255,255,0.05)" stroke="rgba(255,255,255,0.09)" stroke-width="1"/>
  <circle cx="209" cy="79" r="9" fill="#6366f1"/>
  <text x="209" y="83" font-size="9" font-weight="800" fill="white" text-anchor="middle">B</text>
  <text x="222" y="82" font-family="system-ui,sans-serif" font-size="11" font-weight="600" fill="#f0f0f8">Budi</text>
  <rect x="244" y="70" width="52" height="16" rx="8" fill="rgba(245,158,11,0.15)"/>
  <text x="270" y="81" font-size="8.5" font-weight="700" fill="#f59e0b" text-anchor="middle">MARKETING</text>
  <!-- buttons -->
  <rect x="313" y="65" width="30" height="28" rx="8" fill="rgba(255,255,255,0.05)" stroke="rgba(255,255,255,0.08)" stroke-width="1"/>
  <text x="328" y="84" font-size="15" text-anchor="middle">🌙</text>
  <rect x="350" y="65" width="30" height="28" rx="8" fill="rgba(255,255,255,0.05)" stroke="rgba(255,255,255,0.08)" stroke-width="1"/>
  <text x="365" y="84" font-size="15" text-anchor="middle">🔔</text>
  <circle cx="376" cy="67" r="5" fill="#f43f5e"/>

  <!-- HERO -->
  <rect x="0" y="108" width="390" height="318" fill="url(#heroBg)"/>
  <!-- grid lines -->
  <g stroke="rgba(255,255,255,0.022)" stroke-width="1">
    <line x1="0" y1="140" x2="390" y2="140"/><line x1="0" y1="172" x2="390" y2="172"/>
    <line x1="0" y1="204" x2="390" y2="204"/><line x1="0" y1="236" x2="390" y2="236"/>
    <line x1="32" y1="108" x2="32" y2="426"/><line x1="64" y1="108" x2="64" y2="426"/>
    <line x1="96" y1="108" x2="96" y2="426"/><line x1="128" y1="108" x2="128" y2="426"/>
    <line x1="160" y1="108" x2="160" y2="426"/><line x1="192" y1="108" x2="192" y2="426"/>
    <line x1="224" y1="108" x2="224" y2="426"/><line x1="256" y1="108" x2="256" y2="426"/>
    <line x1="288" y1="108" x2="288" y2="426"/><line x1="320" y1="108" x2="320" y2="426"/>
    <line x1="352" y1="108" x2="352" y2="426"/>
  </g>
  <text x="20" y="138" font-family="system-ui,sans-serif" font-size="12" fill="#4a4a68" font-weight="500">Halo 👋</text>
  <rect x="68" y="127" width="54" height="17" rx="8.5" fill="rgba(16,185,129,0.12)" stroke="rgba(16,185,129,0.2)" stroke-width="1"/>
  <circle cx="79" cy="135.5" r="3.5" fill="#10b981"/>
  <text x="106" y="139" font-family="system-ui,sans-serif" font-size="8.5" font-weight="700" fill="#10b981" text-anchor="middle">Live</text>
  <text x="20" y="163" font-family="system-ui,sans-serif" font-size="23" font-weight="800" fill="#f0f0f8" letter-spacing="-1">Budi Santoso</text>
  <text x="20" y="187" font-family="system-ui,sans-serif" font-size="16" font-weight="800" fill="#818cf8" letter-spacing="-0.8">Selamat bekerja!</text>

  <!-- STAT TILES -->
  <rect x="20" y="204" width="165" height="94" rx="16" fill="rgba(99,102,241,0.1)" stroke="rgba(99,102,241,0.22)" stroke-width="1"/>
  <text x="35" y="226" font-family="system-ui,sans-serif" font-size="9.5" font-weight="700" fill="#4a4a68" letter-spacing="0.4">TOTAL KONSUMEN</text>
  <text x="35" y="263" font-family="monospace,sans-serif" font-size="30" font-weight="800" fill="#818cf8" letter-spacing="-2">24</text>
  <text x="35" y="283" font-family="system-ui,sans-serif" font-size="9.5" fill="#2e2e42">Semua tim</text>

  <rect x="205" y="204" width="165" height="94" rx="16" fill="rgba(16,185,129,0.1)" stroke="rgba(16,185,129,0.22)" stroke-width="1"/>
  <text x="220" y="226" font-family="system-ui,sans-serif" font-size="9.5" font-weight="700" fill="#4a4a68" letter-spacing="0.4">AKAD SELESAI</text>
  <text x="220" y="263" font-family="monospace,sans-serif" font-size="30" font-weight="800" fill="#10b981" letter-spacing="-2">7</text>
  <text x="220" y="283" font-family="system-ui,sans-serif" font-size="9.5" fill="#2e2e42">Transaksi tuntas</text>

  <rect x="20" y="308" width="165" height="94" rx="16" fill="rgba(245,158,11,0.1)" stroke="rgba(245,158,11,0.22)" stroke-width="1"/>
  <text x="35" y="330" font-family="system-ui,sans-serif" font-size="9.5" font-weight="700" fill="#4a4a68" letter-spacing="0.4">PROSES DP</text>
  <text x="35" y="367" font-family="monospace,sans-serif" font-size="30" font-weight="800" fill="#f59e0b" letter-spacing="-2">5</text>
  <text x="35" y="387" font-family="system-ui,sans-serif" font-size="9.5" fill="#2e2e42">Menunggu pelunasan</text>

  <rect x="205" y="308" width="165" height="94" rx="16" fill="rgba(168,85,247,0.1)" stroke="rgba(168,85,247,0.22)" stroke-width="1"/>
  <text x="220" y="330" font-family="system-ui,sans-serif" font-size="9.5" font-weight="700" fill="#4a4a68" letter-spacing="0.4">BOOKING</text>
  <text x="220" y="367" font-family="monospace,sans-serif" font-size="30" font-weight="800" fill="#a855f7" letter-spacing="-2">9</text>
  <text x="220" y="387" font-family="system-ui,sans-serif" font-size="9.5" fill="#2e2e42">Antrian booking</text>

  <!-- PIPELINE -->
  <text x="20" y="436" font-family="system-ui,sans-serif" font-size="13" font-weight="700" fill="#f0f0f8">📊  Pipeline</text>
  <g>
    <rect x="20" y="448" width="86" height="60" rx="12" fill="#111118" stroke="rgba(255,255,255,0.08)" stroke-width="1"/>
    <rect x="20" y="448" width="86" height="3" rx="1.5" fill="#6366f1"/>
    <text x="31" y="477" font-family="monospace" font-size="20" font-weight="800" fill="#818cf8">9</text>
    <text x="31" y="497" font-family="system-ui,sans-serif" font-size="9" font-weight="600" fill="#4a4a68">Booking</text>
  </g>
  <g>
    <rect x="116" y="448" width="86" height="60" rx="12" fill="#111118" stroke="rgba(255,255,255,0.08)" stroke-width="1"/>
    <rect x="116" y="448" width="86" height="3" rx="1.5" fill="#f59e0b"/>
    <text x="127" y="477" font-family="monospace" font-size="20" font-weight="800" fill="#f59e0b">5</text>
    <text x="127" y="497" font-family="system-ui,sans-serif" font-size="9" font-weight="600" fill="#4a4a68">Proses DP</text>
  </g>
  <g>
    <rect x="212" y="448" width="86" height="60" rx="12" fill="#111118" stroke="rgba(255,255,255,0.08)" stroke-width="1"/>
    <rect x="212" y="448" width="86" height="3" rx="1.5" fill="#a855f7"/>
    <text x="223" y="477" font-family="monospace" font-size="20" font-weight="800" fill="#a855f7">3</text>
    <text x="223" y="497" font-family="system-ui,sans-serif" font-size="9" font-weight="600" fill="#4a4a68">Berkas</text>
  </g>
  <g>
    <rect x="308" y="448" width="62" height="60" rx="12" fill="#111118" stroke="rgba(255,255,255,0.08)" stroke-width="1"/>
    <rect x="308" y="448" width="62" height="3" rx="1.5" fill="#10b981"/>
    <text x="319" y="477" font-family="monospace" font-size="20" font-weight="800" fill="#10b981">7</text>
    <text x="319" y="497" font-family="system-ui,sans-serif" font-size="9" font-weight="600" fill="#4a4a68">Selesai</text>
  </g>

  <!-- ACTIVITY -->
  <text x="20" y="536" font-family="system-ui,sans-serif" font-size="13" font-weight="700" fill="#f0f0f8">🕐  Terbaru</text>
  <text x="340" y="536" font-family="system-ui,sans-serif" font-size="11" font-weight="600" fill="#818cf8">Lihat semua →</text>

  <rect x="20" y="550" width="40" height="40" rx="12" fill="#6366f1"/>
  <text x="40" y="575" font-size="14" font-weight="800" fill="white" text-anchor="middle">S</text>
  <text x="68" y="566" font-family="system-ui,sans-serif" font-size="13" font-weight="600" fill="#f0f0f8">Siti Rahma</text>
  <text x="68" y="582" font-family="system-ui,sans-serif" font-size="10" fill="#4a4a68">T45/90 · </text>
  <rect x="113" y="574" width="60" height="15" rx="7" fill="rgba(245,158,11,0.15)"/>
  <text x="143" y="585" font-size="9" font-weight="700" fill="#f59e0b" text-anchor="middle">Proses DP</text>
  <text x="370" y="570" font-family="monospace" font-size="10" fill="#2e2e42" text-anchor="end">2j lalu</text>
  <line x1="20" y1="604" x2="370" y2="604" stroke="rgba(255,255,255,0.07)" stroke-width="1"/>

  <rect x="20" y="614" width="40" height="40" rx="12" fill="#10b981"/>
  <text x="40" y="639" font-size="14" font-weight="800" fill="white" text-anchor="middle">A</text>
  <text x="68" y="630" font-family="system-ui,sans-serif" font-size="13" font-weight="600" fill="#f0f0f8">Andi Firmansyah</text>
  <text x="68" y="646" font-family="system-ui,sans-serif" font-size="10" fill="#4a4a68">T36/60 · </text>
  <rect x="113" y="638" width="72" height="15" rx="7" fill="rgba(168,85,247,0.15)"/>
  <text x="149" y="649" font-size="9" font-weight="700" fill="#a855f7" text-anchor="middle">Kumpul Berkas</text>
  <text x="370" y="634" font-family="monospace" font-size="10" fill="#2e2e42" text-anchor="end">5j lalu</text>
  <line x1="20" y1="668" x2="370" y2="668" stroke="rgba(255,255,255,0.07)" stroke-width="1"/>

  <rect x="20" y="678" width="40" height="40" rx="12" fill="#f59e0b"/>
  <text x="40" y="703" font-size="14" font-weight="800" fill="white" text-anchor="middle">D</text>
  <text x="68" y="694" font-family="system-ui,sans-serif" font-size="13" font-weight="600" fill="#f0f0f8">Dewi Lestari</text>
  <text x="68" y="710" font-family="system-ui,sans-serif" font-size="10" fill="#4a4a68">T54/120 · </text>
  <rect x="113" y="702" width="50" height="15" rx="7" fill="rgba(16,185,129,0.15)"/>
  <text x="138" y="713" font-size="9" font-weight="700" fill="#10b981" text-anchor="middle">Selesai</text>
  <text x="370" y="698" font-family="monospace" font-size="10" fill="#2e2e42" text-anchor="end">1h lalu</text>

  <!-- TAB BAR -->
  <rect x="0" y="758" width="390" height="86" fill="rgba(5,5,8,0.96)"/>
  <rect x="0" y="758" width="390" height="1" fill="rgba(255,255,255,0.08)"/>
  <text x="48" y="783" font-size="22" text-anchor="middle">🏠</text>
  <text x="48" y="801" font-family="system-ui,sans-serif" font-size="9" font-weight="600" fill="#818cf8" text-anchor="middle">Dashboard</text>
  <text x="146" y="783" font-size="22" text-anchor="middle" opacity="0.3">👥</text>
  <text x="146" y="801" font-family="system-ui,sans-serif" font-size="9" font-weight="600" fill="#2e2e42" text-anchor="middle">Konsumen</text>
  <text x="244" y="783" font-size="22" text-anchor="middle" opacity="0.3">📊</text>
  <text x="244" y="801" font-family="system-ui,sans-serif" font-size="9" font-weight="600" fill="#2e2e42" text-anchor="middle">Laporan</text>
  <text x="342" y="783" font-size="22" text-anchor="middle" opacity="0.3">⚙️</text>
  <text x="342" y="801" font-family="system-ui,sans-serif" font-size="9" font-weight="600" fill="#2e2e42" text-anchor="middle">Pengaturan</text>
  <rect x="155" y="826" width="80" height="4" rx="2" fill="rgba(255,255,255,0.15)"/>
</svg>
