<svg xmlns="http://www.w3.org/2000/svg" viewBox="0 0 390 844" width="390" height="844">
<defs>
  <clipPath id="phone"><rect x="0" y="0" width="390" height="844" rx="44"/></clipPath>
</defs>
<g clip-path="url(#phone)">
  <rect width="390" height="844" fill="#f5f5fa"/>
  <rect width="390" height="44" fill="#f5f5fa"/>
  <text x="28" y="29" font-family="SF Pro Display, system-ui" font-size="13" font-weight="600" fill="#0f0f1a">9:41</text>
  <rect x="310" y="18" width="42" height="13" rx="3" fill="none" stroke="#0f0f1a" stroke-width="1.2" stroke-opacity=".5"/>
  <rect x="312" y="20" width="32" height="9" rx="1.5" fill="#10b981"/>
  <!-- Header -->
  <rect y="44" width="390" height="56" fill="rgba(245,245,250,0.96)"/>
  <rect y="99" width="390" height="1" fill="rgba(0,0,0,0.07)"/>
  <rect x="16" y="60" width="30" height="30" rx="8" fill="#6366f1"/>
  <path d="M31 66L23 72.5V80H27.5V75H34.5V80H39V72.5Z" fill="white" opacity="0.9"/>
  <circle cx="36.5" cy="68" r="3.5" fill="#6366f1"/>
  <circle cx="36.5" cy="68" r="2.2" fill="white"/>
  <circle cx="36.5" cy="68" r="0.9" fill="#6366f1"/>
  <text x="54" y="76" font-family="SF Pro Display, system-ui" font-size="17" font-weight="800" letter-spacing="-1" fill="#0f0f1a">Prop<tspan fill="#6366f1">Map</tspan></text>
  <!-- Period bar -->
  <rect y="100" width="390" height="40" fill="#eeeef6"/>
  <rect y="139" width="390" height="1" fill="rgba(0,0,0,0.06)"/>
  <rect x="14" y="109" width="70" height="22" rx="11" fill="#6366f1"/>
  <text x="49" y="124" font-family="SF Pro Display, system-ui" font-size="9" font-weight="700" text-anchor="middle" fill="white">Bulan Ini</text>
  <rect x="90" y="109" width="68" height="22" rx="11" fill="transparent" stroke="rgba(0,0,0,0.1)" stroke-width="1"/>
  <text x="124" y="124" font-family="SF Pro Display, system-ui" font-size="9" text-anchor="middle" fill="#4a4a6a">Kuartal Ini</text>
  <rect x="164" y="109" width="60" height="22" rx="11" fill="transparent" stroke="rgba(0,0,0,0.1)" stroke-width="1"/>
  <text x="194" y="124" font-family="SF Pro Display, system-ui" font-size="9" text-anchor="middle" fill="#4a4a6a">Tahun Ini</text>
  <rect x="230" y="109" width="58" height="22" rx="11" fill="transparent" stroke="rgba(0,0,0,0.1)" stroke-width="1"/>
  <text x="259" y="124" font-family="SF Pro Display, system-ui" font-size="9" text-anchor="middle" fill="#4a4a6a">Semua</text>
  <rect x="294" y="109" width="80" height="22" rx="11" fill="transparent" stroke="rgba(0,0,0,0.1)" stroke-width="1"/>
  <text x="334" y="124" font-family="SF Pro Display, system-ui" font-size="9" text-anchor="middle" fill="#4a4a6a">📅 Custom</text>
  <!-- KPI Cards -->
  <rect x="16" y="150" width="82" height="72" rx="14" fill="white" stroke="rgba(0,0,0,0.07)" stroke-width="1"/>
  <text x="57" y="172" font-family="SF Pro Display, system-ui" font-size="9" fill="#9090b8" text-anchor="middle">Konsumen</text>
  <text x="57" y="196" font-family="SF Pro Display, system-ui" font-size="26" font-weight="800" fill="#6366f1" text-anchor="middle">7</text>
  <text x="57" y="213" font-family="SF Pro Display, system-ui" font-size="8" fill="#b0b0cc" text-anchor="middle">Total</text>
  <rect x="104" y="150" width="82" height="72" rx="14" fill="white" stroke="rgba(0,0,0,0.07)" stroke-width="1"/>
  <text x="145" y="172" font-family="SF Pro Display, system-ui" font-size="9" fill="#9090b8" text-anchor="middle">Selesai</text>
  <text x="145" y="196" font-family="SF Pro Display, system-ui" font-size="26" font-weight="800" fill="#10b981" text-anchor="middle">2</text>
  <text x="145" y="213" font-family="SF Pro Display, system-ui" font-size="8" fill="#b0b0cc" text-anchor="middle">Akad</text>
  <rect x="192" y="150" width="82" height="72" rx="14" fill="white" stroke="rgba(0,0,0,0.07)" stroke-width="1"/>
  <text x="233" y="172" font-family="SF Pro Display, system-ui" font-size="9" fill="#9090b8" text-anchor="middle">Nilai Jual</text>
  <text x="233" y="196" font-family="SF Pro Display, system-ui" font-size="18" font-weight="800" fill="#6366f1" text-anchor="middle">1,2M</text>
  <text x="233" y="213" font-family="SF Pro Display, system-ui" font-size="8" fill="#b0b0cc" text-anchor="middle">Rupiah</text>
  <rect x="280" y="150" width="94" height="72" rx="14" fill="white" stroke="rgba(0,0,0,0.07)" stroke-width="1"/>
  <text x="327" y="172" font-family="SF Pro Display, system-ui" font-size="9" fill="#9090b8" text-anchor="middle">Konversi</text>
  <text x="327" y="196" font-family="SF Pro Display, system-ui" font-size="22" font-weight="800" fill="#f59e0b" text-anchor="middle">29%</text>
  <text x="327" y="213" font-family="SF Pro Display, system-ui" font-size="8" fill="#b0b0cc" text-anchor="middle">Booking→Akad</text>
  <!-- Chart donut area -->
  <rect x="16" y="232" width="168" height="168" rx="16" fill="white" stroke="rgba(0,0,0,0.07)" stroke-width="1"/>
  <text x="100" y="256" font-family="SF Pro Display, system-ui" font-size="10" font-weight="700" fill="#0f0f1a" text-anchor="middle">Pipeline</text>
  <circle cx="100" cy="320" r="48" fill="none" stroke="#eeeef6" stroke-width="20"/>
  <circle cx="100" cy="320" r="48" fill="none" stroke="#6366f1" stroke-width="20" stroke-dasharray="90 212" stroke-dashoffset="0" transform="rotate(-90 100 320)"/>
  <circle cx="100" cy="320" r="48" fill="none" stroke="#f59e0b" stroke-width="20" stroke-dasharray="60 242" stroke-dashoffset="-90" transform="rotate(-90 100 320)"/>
  <circle cx="100" cy="320" r="48" fill="none" stroke="#a855f7" stroke-width="20" stroke-dasharray="45 257" stroke-dashoffset="-150" transform="rotate(-90 100 320)"/>
  <circle cx="100" cy="320" r="48" fill="none" stroke="#ec4899" stroke-width="20" stroke-dasharray="30 272" stroke-dashoffset="-195" transform="rotate(-90 100 320)"/>
  <circle cx="100" cy="320" r="48" fill="none" stroke="#10b981" stroke-width="20" stroke-dasharray="60 242" stroke-dashoffset="-225" transform="rotate(-90 100 320)"/>
  <text x="100" y="316" font-family="SF Pro Display, system-ui" font-size="18" font-weight="800" fill="#0f0f1a" text-anchor="middle">7</text>
  <text x="100" y="330" font-family="SF Pro Display, system-ui" font-size="8" fill="#9090b8" text-anchor="middle">konsumen</text>
  <!-- Legend -->
  <rect x="192" y="232" width="182" height="168" rx="16" fill="white" stroke="rgba(0,0,0,0.07)" stroke-width="1"/>
  <text x="283" y="256" font-family="SF Pro Display, system-ui" font-size="10" font-weight="700" fill="#0f0f1a" text-anchor="middle">Tren 6 Bulan</text>
  <!-- Bar chart sederhana -->
  <rect x="210" y="360" width="18" height="30" rx="4" fill="#6366f1" fill-opacity="0.3"/>
  <rect x="234" y="345" width="18" height="45" rx="4" fill="#6366f1" fill-opacity="0.5"/>
  <rect x="258" y="338" width="18" height="52" rx="4" fill="#6366f1" fill-opacity="0.7"/>
  <rect x="282" y="350" width="18" height="40" rx="4" fill="#6366f1" fill-opacity="0.6"/>
  <rect x="306" y="330" width="18" height="60" rx="4" fill="#6366f1" fill-opacity="0.9"/>
  <rect x="330" y="340" width="18" height="50" rx="4" fill="#6366f1"/>
  <text x="219" y="400" font-family="SF Pro Display, system-ui" font-size="7" fill="#b0b0cc" text-anchor="middle">Okt</text>
  <text x="243" y="400" font-family="SF Pro Display, system-ui" font-size="7" fill="#b0b0cc" text-anchor="middle">Nov</text>
  <text x="267" y="400" font-family="SF Pro Display, system-ui" font-size="7" fill="#b0b0cc" text-anchor="middle">Des</text>
  <text x="291" y="400" font-family="SF Pro Display, system-ui" font-size="7" fill="#b0b0cc" text-anchor="middle">Jan</text>
  <text x="315" y="400" font-family="SF Pro Display, system-ui" font-size="7" fill="#b0b0cc" text-anchor="middle">Feb</text>
  <text x="339" y="400" font-family="SF Pro Display, system-ui" font-size="7" fill="#b0b0cc" text-anchor="middle">Mar</text>
  <!-- Target section -->
  <rect x="16" y="410" width="358" height="98" rx="16" fill="white" stroke="rgba(0,0,0,0.07)" stroke-width="1"/>
  <text x="28" y="432" font-family="SF Pro Display, system-ui" font-size="12" font-weight="700" fill="#0f0f1a">🎯 Target Penjualan</text>
  <text x="28" y="450" font-family="SF Pro Display, system-ui" font-size="10" fill="#9090b8">Maret 2026 · Target bulanan</text>
  <text x="330" y="432" font-family="SF Pro Display, system-ui" font-size="16" font-weight="800" fill="#6366f1" text-anchor="end">2</text>
  <text x="356" y="432" font-family="SF Pro Display, system-ui" font-size="12" fill="#b0b0cc" text-anchor="end">/ 5</text>
  <rect x="28" y="458" width="310" height="8" rx="4" fill="#eeeef6"/>
  <rect x="28" y="458" width="124" height="8" rx="4" fill="#f59e0b"/>
  <text x="28" y="480" font-family="SF Pro Display, system-ui" font-size="10" fill="#f59e0b" font-weight="700">40% tercapai</text>
  <rect x="330" y="462" width="32" height="22" rx="8" fill="rgba(99,102,241,0.08)" stroke="rgba(99,102,241,0.2)" stroke-width="1"/>
  <text x="346" y="477" font-family="SF Pro Display, system-ui" font-size="9" font-weight="700" text-anchor="middle" fill="#6366f1">✏️ Edit</text>
  <!-- Export buttons -->
  <rect x="16" y="518" width="108" height="46" rx="12" fill="white" stroke="rgba(0,0,0,0.07)" stroke-width="1"/>
  <text x="70" y="546" font-family="SF Pro Display, system-ui" font-size="10" font-weight="700" text-anchor="middle" fill="#0f0f1a">📄 PDF</text>
  <rect x="130" y="518" width="108" height="46" rx="12" fill="rgba(16,185,129,0.06)" stroke="rgba(16,185,129,0.2)" stroke-width="1"/>
  <text x="184" y="546" font-family="SF Pro Display, system-ui" font-size="10" font-weight="700" text-anchor="middle" fill="#10b981">📗 Excel</text>
  <rect x="244" y="518" width="108" height="46" rx="12" fill="white" stroke="rgba(0,0,0,0.07)" stroke-width="1"/>
  <text x="298" y="546" font-family="SF Pro Display, system-ui" font-size="10" font-weight="700" text-anchor="middle" fill="#0f0f1a">📊 CSV</text>
  <!-- Tab bar -->
  <rect y="754" width="390" height="90" fill="rgba(245,245,250,0.98)"/>
  <rect y="754" width="390" height="1" fill="rgba(0,0,0,0.07)"/>
  <text x="39" y="785" font-family="serif" font-size="22" text-anchor="middle" fill="#b0b0cc">🏠</text>
  <text x="117" y="785" font-family="serif" font-size="22" text-anchor="middle" fill="#b0b0cc">👥</text>
  <text x="195" y="785" font-family="serif" font-size="22" text-anchor="middle" fill="#b0b0cc">📅</text>
  <text x="273" y="785" font-family="serif" font-size="22" text-anchor="middle" fill="#6366f1">📊</text>
  <text x="273" y="800" font-family="SF Pro Display, system-ui" font-size="10" font-weight="600" text-anchor="middle" fill="#6366f1">Laporan</text>
  <text x="351" y="785" font-family="serif" font-size="22" text-anchor="middle" fill="#b0b0cc">⚙️</text>
  <rect x="155" y="828" width="80" height="4" rx="2" fill="rgba(0,0,0,0.12)"/>
  <rect x="0" y="0" width="390" height="844" rx="44" fill="none" stroke="rgba(0,0,0,0.07)" stroke-width="1.5"/>
</g>
</svg>
